<?xml version="1.0" encoding="UTF-8"?>
<!DOCTYPE svg PUBLIC "-//W3C//DTD SVG 1.1//EN" "http://www.w3.org/Graphics/SVG/1.1/DTD/svg11.dtd">
<!-- Creator: CorelDRAW -->
<svg xmlns="http://www.w3.org/2000/svg" xml:space="preserve" width="77.9911mm" height="45.9537mm" version="1.1" style="shape-rendering:geometricPrecision; text-rendering:geometricPrecision; image-rendering:optimizeQuality; fill-rule:evenodd; clip-rule:evenodd"
viewBox="0 0 232.83 137.19"
 xmlns:xlink="http://www.w3.org/1999/xlink"
 xmlns:xodm="http://www.corel.com/coreldraw/odm/2003">
 <defs>
  <style type="text/css">
   <![CDATA[
    .fil0 {fill:black}
   ]]>
  </style>
 </defs>
 <g id="Слой_x0020_1">
  <metadata id="CorelCorpID_0Corel-Layer"/>
  <path class="fil0" d="M213.28 0.25c-8.35,0 -9.7,3.56 -15.58,9.44 -7.94,7.94 -79.1,78.48 -80.83,81.06l-14.21 -13.98c-11.33,-11.33 -69.86,-70.59 -74.85,-74.31 -4.89,-3.65 -11.33,-2.99 -15.61,0.45 -1.52,1.22 -9.31,8.94 -10.49,10.88 -0.95,1.56 -1.49,3.09 -1.71,4.58l0 3.21c1.03,7.04 8.49,12.87 12.16,16.54l94.35 94.37c11.45,11.35 20.33,-0.55 26.84,-7.06l94.36 -94.36c4.29,-4.27 5.12,-5.9 5.12,-11.71 0,-5 -4.69,-9.01 -7.39,-11.71 -3.11,-3.11 -6.28,-7.39 -12.16,-7.39z"/>
 </g>
</svg>
