<?xml version="1.0" encoding="UTF-8"?>
<!DOCTYPE svg PUBLIC "-//W3C//DTD SVG 1.1//EN" "http://www.w3.org/Graphics/SVG/1.1/DTD/svg11.dtd">
<!-- Creator: CorelDRAW -->
<svg xmlns="http://www.w3.org/2000/svg" xml:space="preserve" width="36.23mm" height="36.23mm" version="1.1" style="shape-rendering:geometricPrecision; text-rendering:geometricPrecision; image-rendering:optimizeQuality; fill-rule:evenodd; clip-rule:evenodd"
viewBox="0 0 65.8 65.8"
 xmlns:xlink="http://www.w3.org/1999/xlink"
 xmlns:xodm="http://www.corel.com/coreldraw/odm/2003">
 <defs>
  <style type="text/css">
   <![CDATA[
    .fil0 {fill:limegreen}
   ]]>
  </style>
 </defs>
 <g id="Слой_x0020_1">
  <metadata id="CorelCorpID_0Corel-Layer"/>
  <path class="fil0" d="M23.77 29.69c0,1.28 0.14,1.52 0.92,2.55 1.2,1.59 3.54,4.35 5.01,5.52 0.31,0.25 0.5,0.48 0.78,0.76l1.68 1.4c2.87,2.32 4.63,3.63 7.74,-0.4 2.96,-3.84 3.46,-2.13 7.09,1.5 0.5,0.5 3.12,2.89 3.12,3.44 0,1.33 -0.26,1.22 -1.32,2.28 -0.56,0.56 -1,1.11 -1.66,1.55 -3.05,2.04 -5.49,2.12 -8.93,1l-2.96 -1.15c-1.94,-0.9 -3.51,-1.94 -5.18,-3.04 -0.42,-0.28 -0.78,-0.54 -1.19,-0.87 -2.87,-2.37 -3.23,-2.51 -5.85,-5.46 -2.28,-2.57 -2.86,-3.49 -4.68,-6.5 -0.55,-0.91 -0.87,-1.78 -1.35,-2.77 -2.24,-4.64 -1.86,-8.36 1.66,-11.88 2.98,-2.98 2.17,-2.77 8.42,3.47 2.44,2.44 1.98,2.32 -0.96,5.27 -0.77,0.77 -2.35,1.95 -2.35,3.31zm42.02 2.01l0 2.52c-0.09,2.25 -0.4,4.5 -0.96,6.72 -0.87,3.48 -1.91,5.58 -3.45,8.5 -1.23,2.33 -2.88,4 -4.25,5.77 -0.96,1.25 -4.06,3.78 -5.34,4.68 -0.4,0.28 -0.79,0.54 -1.24,0.81 -6.25,3.69 -10.56,5.1 -18.8,5.1 -8.92,0 -18.92,-5.16 -24.09,-11.77 -1.19,-1.52 -2.37,-2.97 -3.29,-4.68 -0.46,-0.86 -0.93,-1.66 -1.37,-2.61 -2.27,-4.9 -3,-8.94 -3,-14.99 0,-4.51 1.59,-9.82 3.08,-12.85 2.02,-4.09 5.11,-8.44 8.69,-11.23 0.43,-0.34 0.68,-0.58 1.14,-0.92 0.41,-0.3 0.72,-0.56 1.1,-0.83 0.4,-0.28 0.79,-0.54 1.24,-0.81 1.35,-0.8 2.27,-1.39 3.81,-2.1 4.9,-2.27 8.94,-3 14.99,-3 8.92,0 18.92,5.16 24.09,11.77 0.34,0.43 0.58,0.68 0.92,1.14l1.64 2.35c1.14,1.93 1.84,3.07 2.71,5.25 1.43,3.59 2.24,7.37 2.39,11.19z"/>
 </g>
</svg>
