<?xml version="1.0" encoding="UTF-8"?>
<!DOCTYPE svg PUBLIC "-//W3C//DTD SVG 1.1//EN" "http://www.w3.org/Graphics/SVG/1.1/DTD/svg11.dtd">
<!-- Creator: CorelDRAW -->
<svg xmlns="http://www.w3.org/2000/svg" xml:space="preserve" width="100mm" height="100mm" version="1.1" style="shape-rendering:geometricPrecision; text-rendering:geometricPrecision; image-rendering:optimizeQuality; fill-rule:evenodd; clip-rule:evenodd"
viewBox="0 0 935.65 935.65"
 xmlns:xlink="http://www.w3.org/1999/xlink"
 xmlns:xodm="http://www.corel.com/coreldraw/odm/2003">
 <defs>
  <style type="text/css">
   <![CDATA[
    .fil0 {fill:limegreen}
   ]]>
  </style>
 </defs>
 <g id="Слой_x0020_1">
  <metadata id="CorelCorpID_0Corel-Layer"/>
  <g id="_1996014561456">
   <g>
    <path class="fil0" d="M0 197.56l0 577.96c0,81.13 79.01,160.13 160.15,160.13l610.67 0c46.68,0 90.23,-43.54 90.23,-90.21l0 -133.52 58.94 0c5.05,0 15.65,-10.59 15.65,-15.63l0 -233.06c0,-5.05 -10.6,-15.63 -15.65,-15.63l-275.03 0c-60.29,0 -122.86,62.56 -122.86,122.84l0 18.65c0,60.27 62.58,122.84 122.86,122.84l175.48 0 0 121.86c0,37.98 -23.29,61.27 -61.28,61.27l-582.7 0c-78.96,0 -135.87,-56.91 -135.87,-135.85l0 -545.34c0,-57.87 30.75,-107.8 86.17,-127.57 24.85,-8.86 53.67,-8.91 79.79,-8.37 8,0.17 40.67,1.65 46.46,-1.46 9.26,-5.19 13.52,-13.53 10.65,-23.95 -1.75,-6.36 -7.53,-15.09 -14.95,-15.09 -19.72,0 -39.43,-0.6 -59.14,-0.5 -17.12,0.09 -34.35,0.74 -51.27,3.47 -35.96,5.81 -63.44,20.5 -89.14,46.2 -27.27,27.26 -49.18,71.99 -49.18,110.96zm663.62 290.63l231.43 0 0 183.13 -233.77 0c-27.2,0 -53.34,-8.65 -72.52,-28.48 -16.33,-16.88 -25.18,-39.61 -25.26,-63.03 -0.07,-23.6 8.77,-46.4 25.4,-63.25 19.84,-20.12 46.96,-28.37 74.72,-28.37z"/>
   </g>
   <g>
    <path class="fil0" d="M156.5 190.75c-5.16,3.85 -9.65,9.39 -9.65,16.13 0,10.53 3.25,15.65 13.53,18.47 11.62,3.18 25.1,1.83 37.08,1.83l536.08 0c16.5,0 33.2,-1.24 49.21,3.75 23.36,7.28 34.91,25.36 37.38,49 1.02,9.78 0.27,19.51 -0.01,29.3 -0.12,4.32 -0.41,13.26 1.21,17.2 4.15,10.06 12.64,14.35 23.24,12.17 7.11,-1.46 16.49,-6.97 16.49,-15.2 0,-38.01 3.91,-85.24 -29.43,-111.58 -9.55,-7.54 -19.81,-15.85 -31.37,-20.02 -13.75,-4.97 -31.22,-5.21 -45.74,-5.21l-13.48 0 -3.07 -13.13c-1.78,-7.63 -5.96,-15.56 -8.89,-22.87 -3.33,-8.32 -6.66,-16.65 -9.99,-24.97l-39.95 -99.89c-2.95,-7.37 -7.92,-18.05 -14.42,-22.9 -3.8,-2.84 -7.79,-3.15 -12.38,-2.61 -8.54,1 -17.92,4.81 -25.87,8.02 -12.61,5.09 -25.06,10.55 -37.88,15.1 -90.59,32.16 -178.91,70.28 -269.07,103.58 -28.2,10.42 -56.33,21.03 -84.4,31.8 -17.63,6.77 -35.25,13.6 -52.74,20.73 -6.21,2.53 -12.4,5.09 -18.53,7.81 -2.15,0.96 -5.41,2.19 -7.37,3.48zm207.62 -34.57c0.62,-0.54 1.25,-1.04 1.93,-1.5 1.73,-1.17 3.65,-2.03 5.68,-2.52l27.91 -11.38 0.19 -0.07c10.71,-4.07 21.34,-8.35 32.05,-12.31l213.56 -81.86 4.43 18.98c1.78,7.62 5.96,15.55 8.89,22.85l39.29 98.22 -377.05 0 43.13 -30.41z"/>
   </g>
  </g>
 </g>
</svg>
