<?xml version="1.0" encoding="UTF-8"?>
<!DOCTYPE svg PUBLIC "-//W3C//DTD SVG 1.1//EN" "http://www.w3.org/Graphics/SVG/1.1/DTD/svg11.dtd">
<!-- Creator: CorelDRAW -->
<svg xmlns="http://www.w3.org/2000/svg" xml:space="preserve" width="100mm" height="100mm" version="1.1" style="shape-rendering:geometricPrecision; text-rendering:geometricPrecision; image-rendering:optimizeQuality; fill-rule:evenodd; clip-rule:evenodd"
viewBox="0 0 886.93 886.93"
 xmlns:xlink="http://www.w3.org/1999/xlink"
 xmlns:xodm="http://www.corel.com/coreldraw/odm/2003">
 <defs>
  <style type="text/css">
   <![CDATA[
    .fil0 {fill:white}
   ]]>
  </style>
 </defs>
 <g id="Слой_x0020_1">
  <metadata id="CorelCorpID_0Corel-Layer"/>
  <g id="_1994447150432">
   <g>
    <path class="fil0" d="M0 187.27l0 547.87c0,76.91 74.9,151.79 151.82,151.79l578.88 0c44.25,0 85.53,-41.27 85.53,-85.52l0 -126.56 55.87 0c4.79,0 14.83,-10.04 14.83,-14.82l0 -220.92c0,-4.78 -10.05,-14.82 -14.83,-14.82l-260.7 0c-57.15,0 -116.46,59.3 -116.46,116.44l0 17.67c0,57.13 59.32,116.44 116.46,116.44l166.34 0 0 115.51c0,36 -22.08,58.08 -58.09,58.08l-552.36 0c-74.85,0 -128.8,-53.94 -128.8,-128.78l0 -516.94c0,-54.86 29.15,-102.19 81.69,-120.92 23.56,-8.4 50.88,-8.45 75.64,-7.93 7.58,0.16 38.55,1.56 44.04,-1.38 8.77,-4.92 12.81,-12.82 10.1,-22.71 -1.66,-6.03 -7.14,-14.3 -14.17,-14.3 -18.69,0 -37.37,-0.57 -56.06,-0.47 -16.22,0.09 -32.56,0.7 -48.6,3.29 -34.08,5.51 -60.13,19.43 -84.5,43.79 -25.85,25.85 -46.62,68.24 -46.62,105.18zm629.07 275.5l219.37 0 0 173.6 -221.59 0c-25.79,0 -50.56,-8.2 -68.75,-27 -15.48,-16 -23.87,-37.55 -23.94,-59.75 -0.07,-22.38 8.31,-43.98 24.07,-59.96 18.81,-19.07 44.51,-26.89 70.83,-26.89z"/>
   </g>
   <g>
    <path class="fil0" d="M148.35 180.81c-4.89,3.65 -9.15,8.9 -9.15,15.29 0,9.98 3.08,14.84 12.83,17.5 11.01,3.02 23.79,1.74 35.14,1.74l508.17 0c15.64,0 31.47,-1.17 46.65,3.56 22.15,6.91 33.09,24.04 35.43,46.45 0.97,9.27 0.25,18.5 -0.01,27.77 -0.12,4.1 -0.39,12.57 1.15,16.31 3.94,9.54 11.98,13.61 22.03,11.54 6.74,-1.39 15.63,-6.61 15.63,-14.41 0,-36.03 3.7,-80.8 -27.9,-105.77 -9.05,-7.15 -18.78,-15.02 -29.74,-18.98 -13.03,-4.71 -29.59,-4.94 -43.36,-4.94l-12.78 0 -2.91 -12.44c-1.69,-7.23 -5.65,-14.75 -8.42,-21.68 -3.16,-7.89 -6.32,-15.78 -9.47,-23.67l-37.87 -94.69c-2.79,-6.99 -7.51,-17.11 -13.67,-21.71 -3.6,-2.69 -7.38,-2.99 -11.74,-2.47 -8.09,0.95 -16.98,4.56 -24.52,7.6 -11.95,4.83 -23.76,10 -35.91,14.31 -85.87,30.48 -169.6,66.62 -255.06,98.19 -26.73,9.87 -53.4,19.93 -80,30.15 -16.71,6.42 -33.41,12.89 -49.99,19.65 -5.88,2.4 -11.76,4.82 -17.56,7.41 -2.04,0.91 -5.13,2.08 -6.98,3.3zm196.81 -32.77c0.59,-0.51 1.18,-0.98 1.83,-1.42 1.64,-1.11 3.46,-1.92 5.38,-2.39l26.46 -10.79 0.18 -0.07c10.15,-3.86 20.23,-7.91 30.38,-11.67l202.44 -77.6 4.2 18c1.69,7.22 5.65,14.74 8.42,21.66l37.24 93.11 -357.41 0 40.88 -28.83z"/>
   </g>
  </g>
 </g>
</svg>
