<?xml version="1.0" encoding="UTF-8"?>
<!DOCTYPE svg PUBLIC "-//W3C//DTD SVG 1.1//EN" "http://www.w3.org/Graphics/SVG/1.1/DTD/svg11.dtd">
<!-- Creator: CorelDRAW -->
<svg xmlns="http://www.w3.org/2000/svg" xml:space="preserve" width="100mm" height="100mm" version="1.1" style="shape-rendering:geometricPrecision; text-rendering:geometricPrecision; image-rendering:optimizeQuality; fill-rule:evenodd; clip-rule:evenodd"
viewBox="0 0 1011.8 1011.8"
 xmlns:xlink="http://www.w3.org/1999/xlink"
 xmlns:xodm="http://www.corel.com/coreldraw/odm/2003">
 <defs>
  <style type="text/css">
   <![CDATA[
    .fil0 {fill:limegreen}
    .fil1 {fill:limegreen}
   ]]>
  </style>
 </defs>
 <g id="Слой_x0020_1">
  <metadata id="CorelCorpID_0Corel-Layer"/>
  <g id="_1996014585072">
   <g>
    <path class="fil0" d="M491.58 821.69c0,10.03 3.09,20.3 14.03,19.71 3.71,-0.2 7.61,-1.74 10.54,-4.17 1.96,-1.63 4.06,-4.2 4.06,-7.01 0,-10.03 -3.09,-20.3 -14.03,-19.71 -3.71,0.2 -7.61,1.74 -10.54,4.17 -1.96,1.63 -4.06,4.2 -4.06,7.01z"/>
   </g>
   <g>
    <path class="fil0" d="M567.52 851.54c0,6.29 7.58,12.8 11.91,16.15 7.61,5.89 14.02,11.21 20.14,18.95 5.89,7.44 10.95,15.32 15.22,23.93 3.73,7.52 11.5,18.31 20.78,16.26 7.46,-1.65 10.54,-10.43 10.54,-17.72 0,-5.53 -4.73,-14.4 -7.41,-18.96 -5.36,-9.16 -12,-17.94 -18.82,-25.93 -6.62,-7.75 -14.01,-15.47 -21.83,-21.84 -2.77,-2.26 -10.61,-8.25 -14.22,-8.25 -8.97,0 -16.32,7.81 -16.32,17.41z"/>
   </g>
   <g>
    <path class="fil0" d="M729.38 286.53c0,8.71 15.99,22.39 21.76,27.54 5.71,5.1 11.7,10.24 16.88,15.93 4.34,4.77 9.1,11.05 9.29,18.01 0.22,7.81 -1.88,17.13 -3.51,24.75 -1.9,8.85 -4.01,17.86 -5.02,26.88 -0.65,5.79 -1.11,14.11 1.52,19.44 2.63,5.34 8.15,6.39 13.37,6.39 4.64,0 23.81,-11.55 28.42,-14.3 5.97,-3.55 11.92,-7.19 17.98,-10.57 3.51,-1.96 9.58,-5.41 13.51,-5.72 3.91,-0.31 10.18,3.33 13.61,5.24 6.09,3.4 12.07,7.06 18.08,10.61 5.41,3.2 24.63,14.73 30.3,14.73 4.61,0 9.17,-1 11.68,-5.48 2.62,-4.69 2.68,-12.06 2.39,-17.34 -0.96,-17.2 -6.21,-34.17 -8.16,-51.26 -0.43,-3.74 -1.19,-7.65 0.63,-11.13 1.37,-2.63 4.84,-5.35 6.94,-7.49 7.89,-8.02 15.94,-15.59 23.53,-23.99 3.95,-4.36 7.97,-9.05 11.29,-13.98 1.07,-1.6 4,-6.24 4,-8.27 0,-5 -0.37,-10.97 -4.61,-14.04 -4.72,-3.41 -14.95,-4.67 -20.53,-5.46 -7.77,-1.1 -15.51,-2.67 -23.25,-3.98 -7.05,-1.19 -14.74,-2.46 -21.88,-2.46l-4.5 0 -1.02 -4.67c-1.17,-5.35 -4.57,-12.38 -6.91,-17.32 -3.03,-6.37 -6.29,-12.61 -9.3,-18.99 -1.8,-3.8 -3.3,-7.72 -4.88,-11.62 -1.21,-2.97 -2.51,-6.12 -4.21,-8.81 -3.29,-5.22 -7.25,-6.82 -13.14,-6.82 -10.35,0 -17.73,17.44 -21.2,25.77 -3.07,7.38 -5.72,14.94 -8.79,22.31 -2.36,5.65 -5.71,13.13 -10.41,16.94 -6.51,5.27 -16.37,4.76 -24.15,5.93 -6.59,0.99 -13.22,1.67 -19.82,2.59 -5.47,0.76 -11.25,1.69 -16.5,3.49 -8.39,2.88 -13.36,7.21 -13.36,17.14zm60.28 6.75c8.65,0 19.44,-0.61 27.58,-4.08 4.26,-1.82 7.61,-4.32 10.07,-8.5 2.22,-3.77 3.49,-8.31 5.09,-12.41 2.25,-5.78 5.02,-10.57 9.86,-14.35l6.92 -5.41 1.95 8.91c1.69,7.72 9.11,23.22 14.6,28.52 6.33,6.12 25.51,7.32 33.83,7.32l10.61 0 -5.9 9.41c-1.9,3.02 -4.62,5.9 -7.05,8.43 -2.86,2.98 -5.8,5.88 -8.64,8.89 -2.14,2.27 -9.32,10.07 -9.32,13.43 0,6.05 0.83,11.48 1.9,17.38 1.16,6.4 2.1,12.29 2.1,18.86l0 11.32 -8.82 -6.3c-6.13,-4.38 -12.96,-9.28 -19.68,-12.55 -3.51,-1.71 -7.24,-3.06 -11.15,-2.72 -3.98,0.34 -8.11,2.38 -11.63,4.27 -6.63,3.55 -13.11,7.61 -19.68,11.32l-10.99 6.2 2.82 -12.92c2.07,-9.48 4.41,-20.9 4.39,-30.67 -0.01,-4.12 -0.43,-8.52 -2.68,-12 -1.97,-3.04 -5.43,-5.71 -8.08,-8.07 -5.04,-4.49 -9.12,-9.03 -12.8,-14.89l-5.9 -9.41 10.61 0z"/>
   </g>
   <g>
    <path class="fil0" d="M49.96 286.53c0,8.71 15.99,22.39 21.76,27.54 5.71,5.1 11.69,10.24 16.88,15.93 4.34,4.77 9.1,11.05 9.29,18.01 0.17,6.27 -0.89,12.95 -2.05,19.09 -1.29,6.82 -2.88,13.57 -4.28,20.36 -1.42,6.84 -4.83,23.09 -1.5,29.52 4.24,8.19 9.81,9.94 17.91,7.46 8.34,-2.55 16.07,-8.38 23.5,-12.99 1.91,-1.18 3.97,-2.27 5.93,-3.35 3.28,-1.8 6.57,-3.58 9.87,-5.34 3.24,-1.72 6.49,-3.43 9.76,-5.06 1.86,-0.92 5.13,-2.67 7.14,-2.83 3.91,-0.31 10.18,3.33 13.61,5.24 6.09,3.4 12.07,7.06 18.08,10.61 5.41,3.2 24.63,14.73 30.3,14.73 4.61,0 9.17,-1 11.67,-5.48 2.62,-4.69 2.68,-12.06 2.39,-17.34 -0.96,-17.2 -6.21,-34.17 -8.16,-51.26 -0.42,-3.74 -1.19,-7.65 0.63,-11.13 1.37,-2.63 4.84,-5.35 6.94,-7.49 7.89,-8.02 15.94,-15.59 23.53,-23.99 3.95,-4.36 7.97,-9.05 11.29,-13.98 1.07,-1.6 4,-6.24 4,-8.27 0,-5 -0.37,-10.97 -4.61,-14.04 -4.72,-3.41 -14.95,-4.67 -20.53,-5.46 -7.77,-1.1 -15.51,-2.67 -23.25,-3.98 -7.05,-1.19 -14.74,-2.46 -21.87,-2.46l-4.5 0 -1.02 -4.67c-1.17,-5.35 -4.57,-12.38 -6.91,-17.32 -3.03,-6.37 -6.29,-12.61 -9.3,-18.99 -1.8,-3.8 -3.3,-7.72 -4.88,-11.62 -1.21,-2.97 -2.51,-6.12 -4.21,-8.81 -3.29,-5.22 -7.25,-6.82 -13.14,-6.82 -10.35,0 -17.73,17.44 -21.2,25.77 -3.07,7.38 -5.72,14.94 -8.79,22.31 -2.36,5.65 -5.71,13.13 -10.41,16.94 -4.4,3.56 -18.39,5.5 -24,6.36 -8.23,1.25 -16.46,2.14 -24.69,3.3 -5.87,0.83 -13.7,2.04 -18.79,5.4 -4.91,3.25 -6.35,8.08 -6.35,14.1zm60.28 6.75c8.65,0 19.44,-0.61 27.58,-4.08 4.26,-1.82 7.61,-4.32 10.07,-8.5 2.22,-3.77 3.49,-8.31 5.09,-12.41 2.25,-5.78 5.02,-10.57 9.86,-14.35l6.92 -5.41 1.95 8.91c6.66,30.48 21.01,35.84 48.44,35.84l10.61 0 -5.9 9.41c-1.9,3.02 -4.62,5.9 -7.05,8.43 -2.86,2.98 -5.8,5.88 -8.64,8.89 -2.14,2.27 -9.32,10.07 -9.32,13.43 0,6.05 0.83,11.48 1.9,17.38 1.16,6.4 2.1,12.29 2.1,18.86l0 11.32 -8.82 -6.3c-6.13,-4.38 -12.96,-9.28 -19.68,-12.55 -3.51,-1.71 -7.24,-3.06 -11.15,-2.72 -3.98,0.34 -8.11,2.38 -11.63,4.27 -6.63,3.55 -13.11,7.61 -19.68,11.32l-10.99 6.2 2.82 -12.92c1.8,-8.23 6.81,-30.47 3.71,-38.06 -2.07,-5.06 -5.99,-9.15 -9.73,-12.83 -4.7,-4.62 -9.56,-9.01 -13.15,-14.73l-5.9 -9.41 10.61 0z"/>
   </g>
   <g>
    <path class="fil0" d="M417.65 205.97l-9.56 67.22 -0.02 0.13c-1.28,6.96 -5.19,23.85 -3.92,30.35 1.12,5.73 8.21,13.07 13.82,13.07 3.53,-0.12 16.36,-6.8 19.86,-8.64 7.09,-3.72 14.34,-7.72 21.17,-11.96 5.52,-3.42 11.01,-6.9 16.53,-10.33 3.99,-2.48 8.01,-4.97 12.11,-7.23 5.79,-3.18 11.97,-6.04 18.63,-5.68 6.34,0.34 12.29,3.59 17.77,6.75 9.07,5.24 17.87,10.68 27.09,15.68 3.18,1.72 6.32,3.7 9.42,5.6 4.04,2.47 8.08,4.93 12.18,7.28 3.74,2.15 15.02,8.53 19.1,8.53 3.18,0 7.11,-2.63 9.42,-4.81 1.9,-1.79 4.9,-5.43 4.9,-8.34 0,-6.91 -1.14,-14.72 -2.12,-21.55 -1.41,-9.77 -3.09,-19.51 -4.78,-29.23 -1.63,-9.35 -3.32,-18.7 -4.82,-28.08 -0.59,-3.68 -1.16,-7.38 -1.62,-11.08 -0.33,-2.65 -0.65,-5.47 -0.65,-8.14 0,-3.47 2.27,-6.6 4.31,-9.1 2.49,-3.05 5.33,-5.93 8.11,-8.69 7.66,-7.61 15.64,-14.9 23.43,-22.35 7.84,-7.5 15.9,-15.34 22.92,-23.71 2.22,-2.65 9.17,-11.32 9.17,-15.03 0,-8.8 -3.14,-13.47 -10.86,-16.33 -4.17,-1.54 -8.81,-2.3 -13.17,-2.92 -5.17,-0.73 -10.36,-1.27 -15.51,-2.2 -10.37,-1.87 -20.77,-3.35 -31.18,-4.92 -8.45,-1.27 -27.05,-2.11 -32.86,-8.75l-0.58 -0.66 -35.12 -76.74c-2.98,-6.5 -8.82,-15.47 -16.73,-13.94 -9.56,1.85 -16.81,16.71 -20.08,25.18l-0.06 0.17 -26.12 57.66c-1.78,3.93 -3.47,8.71 -7.04,11.16 -3.27,2.25 -8.86,2.67 -12.69,3.33 -6.49,1.11 -13.17,1.84 -19.7,2.68 -9.1,1.17 -18.21,2.4 -27.27,3.89 -8.4,1.38 -17.07,2.97 -25.27,5.36 -2.27,0.66 -10.36,3.24 -11.81,5.25 -7.66,10.78 -1.34,21.3 7.36,28.31 1.47,1.19 2.94,2.66 4.3,3.99 2.33,2.28 4.64,4.59 6.93,6.92 6.19,6.27 12.31,12.63 18.38,19.02 5.86,6.17 11.71,12.4 17.39,18.75 1.95,2.18 3.91,4.38 5.76,6.66 1.62,2 3.48,4.21 3.48,7.02l0 0.46zm186.88 -63.19c-5.56,8.85 -14.28,17 -21.69,24.13 -3.83,3.69 -7.68,7.38 -11.33,11.27 -2.9,3.09 -5.91,6.52 -8.17,10.18 -2.55,4.13 -3.25,8.04 -2.9,12.91 0.43,5.95 2.07,12.23 3,18.17 1.01,6.45 2.36,12.88 3.52,19.3 1.15,6.38 2.41,13.45 2.55,19.94l0.16 7.79 -7.11 -1.77c-7.95,-1.98 -15.16,-5.63 -22.16,-10.02 -6.01,-3.76 -11.77,-8.05 -17.84,-11.68 -11.39,-6.82 -20.36,-8.65 -32.06,-0.83l-0.25 0.17 -52.54 27.52 2.71 -12.41c2.73,-12.49 5.42,-24.91 7.14,-37.62 0.85,-6.28 3.15,-26.15 -0.63,-31.42 -5.61,-7.82 -13.6,-15.09 -20.45,-21.71 -7.35,-7.1 -15.7,-15.1 -21.23,-23.91l-5.9 -9.41 10.61 0c4.63,0 9.52,-0.49 14.12,-0.97 6.68,-0.71 13.37,-1.64 19.99,-2.81 6.27,-1.11 12.71,-2.44 18.81,-4.34 2.21,-0.69 7.95,-2.62 9.56,-4.36 0.59,-0.71 1.31,-2.03 1.79,-2.87 1.19,-2.08 2.31,-4.21 3.41,-6.34 3.01,-5.84 5.87,-11.79 8.66,-17.76 2.8,-5.98 5.54,-12.02 8.12,-18.11 0.95,-2.24 1.89,-4.5 2.75,-6.79 0.39,-1.03 0.94,-2.4 1.18,-3.48l1.95 -8.91 6.92 5.41c6.97,5.45 12.77,20.42 16.18,28.81 2.3,5.65 4.54,11.36 7.02,16.92 1.79,4.01 3.97,8.71 6.57,12.19 3.67,4.93 22.33,8.75 28.05,9.79 6.65,1.2 13.38,2.09 20.1,2.74 4.81,0.46 9.81,0.87 14.65,0.87l10.61 0 -5.9 9.41z"/>
   </g>
   <path class="fil0" d="M-0 946.14l0 54.64c0.18,3.04 7.48,10.84 10.33,11.02l991.14 0c2.85,-0.19 10.16,-7.98 10.33,-11.02l0 -25.61c0,-25.88 -0.51,-52.29 -7.89,-77.18 -8.38,-28.25 -24.84,-51.81 -43.49,-73.34 -25.13,-29 -74.48,-53.37 -111.28,-56.64l-16.8 -1.49 0.22 -0.15 -18.45 1.64c-32.01,2.84 -63.87,17.38 -90.49,36.1 -8.77,6.17 -16,14.22 -24.73,20.46l-4.71 3.36 -3.15 -5.02c-33.48,-53.34 -104.27,-92.28 -163.62,-97.55l-27.67 -2.46 1.43 0.97 -16.78 1.49c-54.33,4.82 -101.6,31.03 -140.99,70.33 -4.02,4.02 -8.19,8 -11.93,12.32 -4,4.62 -7.42,9.67 -10.7,14.89l-3.15 5.02 -4.71 -3.36c-4.23,-3.02 -8.28,-6.21 -12.21,-9.65 -2.92,-2.56 -5.76,-5.22 -8.72,-7.73 -9.06,-7.71 -19.43,-13.67 -29.74,-19.21 -9.5,-5.11 -20.26,-9.2 -30.44,-12.45 -10.91,-3.49 -22.76,-6.51 -34.11,-7.52l-17.51 -1.56 -17.52 1.56c-36.86,3.27 -86.11,27.6 -111.28,56.64 -6.64,7.66 -13.13,15.48 -18.89,23.93 -5.82,8.55 -10.69,17.54 -15.13,26.98 -11.1,23.59 -16.25,44.3 -17.37,70.57zm711.53 35.11l-411.87 0 6.38 -54.48 0.06 -0.3c9.45,-44.05 33.06,-84.5 64.36,-114.72 30.59,-29.54 69.68,-50.34 111.2,-53.51 6.36,-0.49 12.71,-1.01 19.07,-1.57 2.05,-0.18 4.37,-0.47 6.42,-0.35 1.63,0.1 3.36,0.44 5,0.62 5.28,0.61 10.67,0.91 15.98,1.2 19.11,1.05 44.55,9.23 62.01,17.52 32.26,15.32 64.06,43.9 83.94,75 15.82,24.74 25.34,46.49 31.63,75.81 0.77,3.59 1.43,7.24 2.02,10.87 0.64,3.93 1.26,8.01 1.52,11.98 0.57,8.54 1.97,17.21 2.15,25.74l0.13 6.18zm5.04 -130.47c3.89,-2.78 7.76,-6.82 11.34,-10.1 6.47,-5.92 13.13,-11.2 20.36,-16.04 40.92,-27.33 97.1,-33.5 141.56,-12.74 67.65,31.59 93.34,86.32 93.34,163.29l0 6.04 -243.13 0 0 -6.04c0,-41.48 -9.75,-79.36 -25.48,-116.93l-1.95 -4.65 3.97 -2.84zm-444.8 113.76l0 16.71 -243.13 0 0 -6.04c0,-76.97 25.69,-131.7 93.34,-163.29 25.85,-12.07 53.84,-15.41 81.6,-10.59 27.45,4.77 53.42,17.28 75.65,34.99 3.15,2.51 5.97,5.27 8.85,8.12 2.28,2.26 4.57,4.49 7.16,6.34l3.25 2.33 -0.89 4.07c-1.28,5.88 -3.8,12.02 -6,17.59 -3.02,7.65 -6.01,15.24 -8.64,23.06 -7.3,21.78 -11.2,43.53 -11.2,66.71z"/>
   <path class="fil1" d="M505.7 386.35c84.28,0 152.61,72.7 152.61,162.38 0,89.68 -68.33,162.38 -152.61,162.38 -84.29,0 -152.61,-72.7 -152.61,-162.38 0,-89.68 68.33,-162.38 152.61,-162.38zm0 36.35c65.42,0 118.45,56.43 118.45,126.03 0,69.61 -53.03,126.03 -118.45,126.03 -65.42,0 -118.45,-56.43 -118.45,-126.03 0,-69.61 53.03,-126.03 118.45,-126.03z"/>
   <path class="fil1" d="M831.32 545.5c46.09,0 83.45,39.65 83.45,88.56 0,48.91 -37.36,88.56 -83.45,88.56 -46.09,0 -83.45,-39.65 -83.45,-88.56 0,-48.91 37.36,-88.56 83.45,-88.56zm0 -32.46c62.98,0 114.03,54.19 114.03,121.02 0,66.84 -51.06,121.02 -114.03,121.02 -62.98,0 -114.04,-54.19 -114.04,-121.02 0,-66.84 51.06,-121.02 114.04,-121.02z"/>
   <path class="fil1" d="M177.98 546.16c45.75,0 82.83,39.36 82.83,87.91 0,48.55 -37.09,87.91 -82.83,87.91 -45.75,0 -82.84,-39.36 -82.84,-87.91 0,-48.55 37.09,-87.91 82.84,-87.91zm0 -33.11c62.98,0 114.03,54.19 114.03,121.02 0,66.84 -51.06,121.02 -114.03,121.02 -62.98,0 -114.04,-54.19 -114.04,-121.02 0,-66.84 51.06,-121.02 114.04,-121.02z"/>
  </g>
 </g>
</svg>
