<?xml version="1.0" encoding="UTF-8"?>
<!DOCTYPE svg PUBLIC "-//W3C//DTD SVG 1.1//EN" "http://www.w3.org/Graphics/SVG/1.1/DTD/svg11.dtd">
<!-- Creator: CorelDRAW -->
<svg xmlns="http://www.w3.org/2000/svg" xml:space="preserve" width="100mm" height="100.179mm" version="1.1" style="shape-rendering:geometricPrecision; text-rendering:geometricPrecision; image-rendering:optimizeQuality; fill-rule:evenodd; clip-rule:evenodd"
viewBox="0 0 3691.16 3697.76"
 xmlns:xlink="http://www.w3.org/1999/xlink"
 xmlns:xodm="http://www.corel.com/coreldraw/odm/2003">
 <defs>
  <style type="text/css">
   <![CDATA[
    .fil0 {fill:white}
   ]]>
  </style>
 </defs>
 <g id="Слой_x0020_1">
  <metadata id="CorelCorpID_0Corel-Layer"/>
  <g id="_1994714894464">
   <path class="fil0" d="M1445.7 3075.97l1045.83 0c-1.38,1.2 -3.69,1.03 -4.4,3.29 -4.78,15.44 -209.99,77.65 -232.37,82.92 -57.97,13.66 -225.65,37.33 -286.15,37.33 -57.5,0 -230.84,-24.3 -286.14,-37.33 -48.26,-11.37 -79.26,-22.29 -124.35,-37.14 -24.24,-7.98 -34.24,-11.19 -56.04,-20.86l-56.38 -28.22zm584.43 -861.27l246.08 0 0 307.6c0,37.2 24.32,61.52 61.52,61.52l246.08 0c37.2,0 61.52,-24.32 61.52,-61.52l0 -307.6 246.07 0 0 738.23 -861.27 0 0 -738.23zm-984.31 0l246.08 0 0 307.6c0,37.2 24.32,61.52 61.52,61.52l246.08 0c37.2,0 61.52,-24.32 61.52,-61.52l0 -307.6 246.08 0 0 738.23 -861.27 0 0 -738.23zm1353.43 0l123.04 0 0 246.07 -123.04 0 0 -246.07zm-984.31 0l123.04 0 0 246.07 -123.04 0 0 -246.07zm123.04 -861.27l246.07 0 0 307.6c0,37.2 24.32,61.52 61.52,61.52l246.07 0c37.2,0 61.52,-24.32 61.52,-61.52l0 -307.6 246.08 0 0 738.23 -861.27 0 0 -738.23zm1476.46 1253.46l0.44 -431.07c-0.04,-51.96 -11.83,-84.15 -61.95,-84.15l-430.63 0 0 -753.61c164.86,110.4 268.28,138.41 469.08,138.41 46.78,0 56.09,-7.69 99.97,-7.69l40.58 105.53c110.13,312.14 77.12,720.39 -95.69,1000.54l-21.79 32.04zm-1107.34 -1253.46l123.04 0 0 246.08 -123.04 0 0 -246.08zm1307.28 76.9c55.01,-26.39 107.66,-45.66 161.49,-84.58 18.44,-13.34 27.04,-24.52 53.83,-30.77 18.19,78.1 65.13,144.9 107.07,354.33l31.76 314.9c-0.79,43.5 -6.78,65.15 -7.95,115.29 -2.58,111 -48.04,285.06 -81.81,387.28 -273.4,827.64 -1212.49,1304.92 -2090.17,969.28 -418.56,-160.07 -782.99,-524.52 -924.31,-952.02 -40.95,-123.86 -71.12,-237.36 -86.37,-382.72 -29.96,-285.61 61.67,-275.73 -193.36,-275.73 33.3,-62.94 291.67,-407.46 299.91,-438.32l315.29 438.32c-198.74,0 -184.56,-17.33 -184.56,169.18 0,482.98 301.64,773.49 307.82,830.29 5.39,49.54 -4.46,118.11 -0.38,169.56 8.5,107.31 162.57,42.5 259.99,62.99 88.1,18.54 250.47,244.44 832.14,244.44 229.83,0 509.81,-94.09 681.37,-210.66 13.4,-9.11 37.81,-28 52.34,-32.25 94.11,-27.51 257.28,47.42 266.14,-64.52 16.34,-206.29 -45.76,-123.38 59.25,-263.73l122.62 -208.04c147.28,-317.65 173.96,-723.91 38.81,-1056.51 -7.71,-18.98 -13.53,-39.51 -20.9,-56zm-876.65 -692.09c0,-78.09 23.23,-180.3 56.35,-251.25 182.96,-391.96 685.67,-487.07 991.42,-181.32 237.39,237.39 242.8,623.73 3.85,861.3 -57.22,56.9 -102.48,90.14 -179.96,127.64 -229.5,111.07 -512.6,53.64 -685.19,-119.95 -111.78,-112.43 -186.46,-271.51 -186.46,-436.42zm30.76 -446.01c-309.54,-72.12 -633.21,-62.64 -931.51,37.41 -163.02,54.68 -243.58,94.75 -386.72,182.34 -209.99,128.5 -363.38,290.37 -504.33,487.66 -16.98,23.77 -46.34,60.44 -53.78,92.33 40.19,10.73 72.08,50.23 115.35,53.83 16.22,-69.6 218,-297.74 274.98,-347.91l171.06 -136.54c196.47,-138.91 417.26,-226.47 668.96,-269.21 59.95,-10.18 221.76,-30.34 290.16,-20.93 70.2,9.66 226.96,11.41 278.94,36.35 -25.31,47.83 -69.21,159.78 -69.21,230.7 -223.44,-52.06 -531.44,-18.17 -730.62,61.43 -125.38,50.11 -222.06,100.81 -324.08,175.76l-135.4 110.68c-74.2,68.63 -172,196.08 -224.49,283.05 -21.01,34.82 -75.75,129.43 -84.94,168.83 37.97,8.85 77.37,37.29 115.35,46.14 19.78,-37.38 35.25,-73.51 56.36,-112.82l276.57 -338.62c275.62,-232.13 626.68,-333.65 1001.37,-275.36 83.8,13.04 3.91,31.66 92.64,253.4 48.81,121.97 78.94,137.24 134.11,219.63l-784.37 0c-86.37,0 -199.94,-22.98 -199.94,61.52l0 799.75 -430.63 0c-84.55,0 -61.52,111.76 -61.52,223.01 0,97.41 0,194.81 0,292.22 -21.87,-25.16 -58.82,-99.06 -71.43,-128.5 -43.81,-102.31 -79.1,-207.26 -95.52,-319.74 -8.05,-55.15 -17.6,-133.52 -17.6,-190.02 158.23,0 336.67,33.44 194.41,-155.96 -22.38,-29.8 -38.01,-54.85 -60.44,-85.67l-120.2 -172.02c-40.17,-60.27 -79.66,-112.12 -119.83,-172.39l-88.99 -126.32c-70.81,-87.83 -142.08,52.84 -191.06,126.32 -40.17,60.28 -79.66,112.12 -119.83,172.39 -39.25,58.89 -232.3,311.19 -232.3,352.13 0,86.11 114.98,61.52 246.08,61.52 0,174.53 12.02,277.41 52.17,432.29 51.42,198.33 147.27,410.48 269.6,576.29 116.36,157.73 263.68,307.79 428.74,417.15 318.5,211.02 577.61,280.67 965.5,303.41l191.8 -13.58c182.99,-17.67 343.53,-64.68 504.69,-133.57 101.99,-43.59 185.94,-92.34 272.81,-150.13 43.5,-28.94 79.79,-55.17 119.74,-87.89 24.64,-20.18 34.38,-28.61 57.45,-50.21 116.47,-108.99 146.07,-133.03 254.15,-276.46 189.08,-250.91 328.42,-637.89 328.42,-948.1 0,-272.27 -15.36,-415.96 -106.67,-670.01l-62.51 -152.81c114.46,-170.92 169.18,-259.55 169.18,-499.85 0,-374.45 -339.53,-715.16 -699.78,-715.16 -160.95,0 -265.52,15.32 -399.55,92.6 -72.23,41.65 -184.46,126.15 -223.33,199.61z"/>
   <path class="fil0" d="M2891.4 676.71l-307.6 0 0 123.04 369.12 0c37.2,0 61.52,-24.32 61.52,-61.52l0 -369.11 -123.04 0 0 307.6z"/>
  </g>
 </g>
</svg>
