<?xml version="1.0" encoding="UTF-8"?>
<!DOCTYPE svg PUBLIC "-//W3C//DTD SVG 1.1//EN" "http://www.w3.org/Graphics/SVG/1.1/DTD/svg11.dtd">
<!-- Creator: CorelDRAW -->
<svg xmlns="http://www.w3.org/2000/svg" xml:space="preserve" width="100mm" height="100.179mm" version="1.1" style="shape-rendering:geometricPrecision; text-rendering:geometricPrecision; image-rendering:optimizeQuality; fill-rule:evenodd; clip-rule:evenodd"
viewBox="0 0 4712.35 4720.78"
 xmlns:xlink="http://www.w3.org/1999/xlink"
 xmlns:xodm="http://www.corel.com/coreldraw/odm/2003">
 <defs>
  <style type="text/css">
   <![CDATA[
    .fil0 {fill:limegreen}
   ]]>
  </style>
 </defs>
 <g id="Слой_x0020_1">
  <metadata id="CorelCorpID_0Corel-Layer"/>
  <g id="_1994441897632">
   <path class="fil0" d="M1845.67 3926.96l1335.16 0c-1.77,1.53 -4.72,1.32 -5.61,4.2 -6.11,19.71 -268.09,99.13 -296.66,105.86 -74,17.44 -288.08,47.66 -365.32,47.66 -73.41,0 -294.7,-31.03 -365.31,-47.66 -61.61,-14.51 -101.18,-28.45 -158.75,-47.41 -30.94,-10.18 -43.71,-14.29 -71.55,-26.62l-71.97 -36.02zm746.12 -1099.55l314.16 0 0 392.69c0,47.49 31.05,78.54 78.54,78.54l314.16 0c47.49,0 78.54,-31.05 78.54,-78.54l0 -392.69 314.15 0 0 942.47 -1099.55 0 0 -942.47zm-1256.63 0l314.16 0 0 392.69c0,47.49 31.05,78.54 78.54,78.54l314.16 0c47.49,0 78.54,-31.05 78.54,-78.54l0 -392.69 314.16 0 0 942.47 -1099.55 0 0 -942.47zm1727.86 0l157.08 0 0 314.15 -157.08 0 0 -314.15zm-1256.63 0l157.08 0 0 314.15 -157.08 0 0 -314.15zm157.08 -1099.55l314.15 0 0 392.69c0,47.49 31.05,78.54 78.54,78.54l314.15 0c47.49,0 78.54,-31.05 78.54,-78.54l0 -392.69 314.16 0 0 942.47 -1099.55 0 0 -942.47zm1884.93 1600.24l0.56 -550.33c-0.05,-66.34 -15.1,-107.44 -79.09,-107.44l-549.77 0 0 -962.1c210.47,140.94 342.5,176.71 598.86,176.71 59.72,0 71.61,-9.82 127.62,-9.82l51.8 134.73c140.6,398.49 98.45,919.69 -122.16,1277.34l-27.82 40.9zm-1413.7 -1600.24l157.08 0 0 314.16 -157.08 0 0 -314.16zm1668.95 98.17c70.23,-33.69 137.44,-58.29 206.17,-107.98 23.55,-17.03 34.52,-31.3 68.72,-39.28 23.23,99.71 83.14,184.99 136.69,452.35l40.54 402.02c-1,55.53 -8.66,83.17 -10.15,147.19 -3.29,141.71 -61.34,363.92 -104.44,494.42 -349.04,1056.62 -1547.93,1665.94 -2668.44,1237.43 -534.36,-204.35 -999.61,-669.64 -1180.03,-1215.41 -52.28,-158.13 -90.8,-303.03 -110.26,-488.6 -38.25,-364.62 78.73,-352.01 -246.85,-352.01 42.51,-80.35 372.36,-520.19 382.88,-559.59l402.51 559.59c-253.72,0 -235.62,-22.12 -235.62,215.98 0,616.6 385.09,987.48 392.98,1059.99 6.88,63.24 -5.7,150.78 -0.49,216.48 10.85,137 207.54,54.25 331.91,80.42 112.48,23.67 319.77,312.07 1062.36,312.07 293.41,0 650.86,-120.12 869.88,-268.94 17.11,-11.63 48.27,-35.75 66.82,-41.18 120.15,-35.12 328.46,60.54 339.77,-82.37 20.87,-263.36 -58.42,-157.52 75.64,-336.69l156.54 -265.6c188.03,-405.53 222.08,-924.18 49.54,-1348.81 -9.84,-24.23 -17.28,-50.45 -26.68,-71.5zm-1119.18 -883.57c0,-99.7 29.66,-230.18 71.93,-320.76 233.57,-500.4 875.37,-621.82 1265.7,-231.48 303.07,303.07 309.97,796.29 4.91,1099.58 -73.06,72.64 -130.83,115.08 -229.75,162.96 -292.99,141.8 -654.42,68.48 -874.76,-153.14 -142.71,-143.54 -238.05,-346.63 -238.05,-557.16zm39.27 -569.4c-395.18,-92.07 -808.4,-79.97 -1189.22,47.76 -208.13,69.81 -310.97,120.96 -493.71,232.79 -268.08,164.05 -463.92,370.71 -643.86,622.58 -21.68,30.34 -59.16,77.16 -68.65,117.88 51.31,13.7 92.03,64.13 147.26,68.72 20.71,-88.86 278.32,-380.11 351.05,-444.16l218.39 -174.31c250.83,-177.34 532.7,-289.12 854.03,-343.69 76.53,-13 283.11,-38.73 370.43,-26.72 89.62,12.33 289.75,14.57 356.11,46.41 -32.32,61.06 -88.36,203.99 -88.36,294.52 -285.25,-66.46 -678.47,-23.19 -932.76,78.43 -160.07,63.97 -283.49,128.7 -413.74,224.38l-172.86 141.3c-94.73,87.62 -219.59,250.33 -286.59,361.36 -26.82,44.46 -96.71,165.24 -108.44,215.54 48.48,11.3 98.78,47.61 147.26,58.9 25.26,-47.73 45,-93.85 71.95,-144.04l353.09 -432.3c351.87,-296.35 800.05,-425.96 1278.41,-351.54 106.99,16.64 4.99,40.42 118.27,323.51 62.32,155.71 100.78,175.21 171.21,280.39l-1001.37 0c-110.26,0 -255.25,-29.34 -255.25,78.54l0 1021.01 -549.77 0c-107.94,0 -78.54,142.69 -78.54,284.71 0,124.35 0,248.71 0,373.06 -27.92,-32.12 -75.1,-126.47 -91.19,-164.06 -55.94,-130.61 -100.99,-264.6 -121.95,-408.19 -10.28,-70.41 -22.47,-170.46 -22.47,-242.6 202,0 429.82,42.69 248.19,-199.11 -28.57,-38.04 -48.52,-70.03 -77.16,-109.37l-153.45 -219.6c-51.28,-76.95 -101.7,-143.13 -152.98,-220.09l-113.61 -161.27c-90.41,-112.14 -181.39,67.45 -243.92,161.27 -51.28,76.95 -101.69,143.14 -152.98,220.09 -50.11,75.19 -296.57,397.29 -296.57,449.55 0,109.93 146.78,78.54 314.16,78.54 0,222.82 15.34,354.16 66.61,551.89 65.65,253.19 188.02,524.04 344.19,735.72 148.56,201.36 336.63,392.94 547.35,532.56 406.62,269.4 737.41,358.32 1232.61,387.35l244.86 -17.34c233.61,-22.55 438.57,-82.58 644.32,-170.53 130.21,-55.65 237.38,-117.88 348.29,-191.67 55.53,-36.94 101.86,-70.43 152.87,-112.2 31.45,-25.76 43.89,-36.53 73.35,-64.1 148.69,-139.15 186.48,-169.84 324.46,-352.94 241.39,-320.32 419.29,-814.36 419.29,-1210.4 0,-347.6 -19.6,-531.03 -136.19,-855.37l-79.8 -195.09c146.12,-218.21 215.99,-331.36 215.99,-638.13 0,-478.04 -433.47,-913.02 -893.38,-913.02 -205.47,0 -338.98,19.56 -510.09,118.23 -92.22,53.17 -235.49,161.05 -285.12,254.84z"/>
   <path class="fil0" d="M3691.34 863.93l-392.69 0 0 157.08 471.23 0c47.49,0 78.54,-31.05 78.54,-78.54l0 -471.23 -157.08 0 0 392.69z"/>
  </g>
 </g>
</svg>
