<?xml version="1.0" standalone="no"?>
<!DOCTYPE svg PUBLIC "-//W3C//DTD SVG 20010904//EN"
 "http://www.w3.org/TR/2001/REC-SVG-20010904/DTD/svg10.dtd">
<svg version="1.0" xmlns="http://www.w3.org/2000/svg"
 width="1056.000000pt" height="1056.000000pt" viewBox="0 0 1056.000000 1056.000000"
 preserveAspectRatio="xMidYMid meet">
<metadata>
Created by potrace 1.14, written by Peter Selinger 2001-2017
</metadata>
<g transform="translate(0.000000,1056.000000) scale(0.100000,-0.100000)"
fill="#000000" stroke="none">
<path d="M898 10545 c-34 -14 -67 -43 -84 -77 -12 -23 -14 -702 -14 -4591 l0
-4564 22 -33 c42 -61 66 -72 170 -76 52 -2 106 -8 120 -13 31 -12 66 -47 80
-81 7 -15 12 -141 13 -320 1 -275 3 -300 24 -364 63 -194 192 -326 386 -397
106 -39 375 -33 427 8 7 6 24 14 37 18 86 26 225 160 278 266 36 70 63 151 63
187 0 12 4 22 9 22 5 0 9 -10 9 -22 0 -86 73 -227 166 -321 64 -64 161 -134
198 -141 7 -2 20 -6 28 -9 93 -40 268 -49 376 -19 38 11 88 29 111 40 125 64
250 199 288 312 1 3 5 12 8 20 19 42 34 126 35 200 1 45 4 86 7 90 3 5 1 11
-5 15 -6 4 -8 11 -5 16 3 5 6 91 6 191 1 168 2 186 22 221 40 72 69 81 248 81
189 0 226 -12 260 -81 19 -38 19 -53 13 -205 -24 -590 -27 -674 -27 -744 -1
-60 3 -78 23 -107 49 -71 -20 -67 1095 -67 562 0 1014 4 1027 9 34 13 73 53
85 86 7 23 11 190 4 190 -1 0 -4 56 -6 125 -3 122 -9 265 -21 520 -4 69 -7
159 -8 200 l-1 75 218 1 c120 0 220 -3 223 -8 3 -4 12 -8 20 -8 33 0 86 -67
88 -112 1 -9 4 -19 8 -23 4 -4 3 -18 -2 -31 -6 -16 -6 -24 1 -24 6 0 7 -4 4
-10 -10 -16 -12 -81 -3 -86 5 -3 6 -10 3 -15 -6 -8 -10 -127 -5 -139 5 -14 6
-50 1 -50 -11 0 -1 -167 13 -230 23 -107 85 -218 162 -292 68 -65 88 -79 154
-113 216 -108 495 -79 669 70 54 47 108 106 123 134 7 14 15 28 18 31 17 17
59 126 67 175 8 49 22 65 24 28 2 -46 3 -50 12 -59 4 -4 7 -14 7 -23 0 -23 68
-154 87 -169 9 -6 14 -12 10 -12 -8 0 26 -41 63 -77 35 -33 156 -113 173 -113
7 0 17 -4 23 -9 5 -6 23 -12 41 -15 18 -4 43 -10 56 -15 43 -16 255 -7 320 14
31 11 57 23 57 28 0 4 4 6 9 3 5 -3 25 5 45 19 20 14 40 25 45 25 14 0 127
114 158 160 42 62 73 126 66 134 -4 3 -2 6 4 6 5 0 10 6 11 13 0 6 3 23 7 37
15 62 17 101 20 360 2 151 5 283 7 292 6 24 49 73 78 88 13 7 65 14 116 16 51
1 103 8 116 15 34 18 66 52 78 83 16 43 14 9108 -3 9155 -13 39 -37 65 -77 83
-34 16 -8743 19 -8782 3z"/>
</g>
</svg>
