<?xml version="1.0" encoding="UTF-8"?>
<!DOCTYPE svg PUBLIC "-//W3C//DTD SVG 1.1//EN" "http://www.w3.org/Graphics/SVG/1.1/DTD/svg11.dtd">
<!-- Creator: CorelDRAW -->
<svg xmlns="http://www.w3.org/2000/svg" xml:space="preserve" width="100mm" height="100mm" version="1.1" style="shape-rendering:geometricPrecision; text-rendering:geometricPrecision; image-rendering:optimizeQuality; fill-rule:evenodd; clip-rule:evenodd"
viewBox="0 0 1536.88 1536.88"
 xmlns:xlink="http://www.w3.org/1999/xlink"
 xmlns:xodm="http://www.corel.com/coreldraw/odm/2003">
 <defs>
  <style type="text/css">
   <![CDATA[
    .fil0 {fill:limegreen}
   ]]>
  </style>
 </defs>
 <g id="Слой_x0020_1">
  <metadata id="CorelCorpID_0Corel-Layer"/>
  <path class="fil0" d="M-0 1125.8l0 24.47c4.7,62.23 44.01,114.44 96.29,146.34 56.71,34.61 124.69,53.34 190.75,57.33 65.14,3.93 134.12,-6.16 193.01,-35.19 41.02,-20.22 79.35,-45.94 105.16,-84.48l5.55 -8.29 9 4.32c3.49,1.67 10.46,3.12 14.3,4 8.8,2.03 17.69,3.79 26.56,5.49 16.49,3.16 33.09,5.9 49.56,9.14l193.48 38.07c5.36,1.05 10.61,1.7 16,2.48 5.15,0.75 10.03,1.76 14.07,5.33 4.66,4.11 6.05,9.64 6.43,15.59 0.39,6.13 0.05,12.67 -0.05,18.83 -0.27,16.15 2.52,29.95 8.02,45.03 37.86,103.85 175.21,162.62 279.04,162.62 82.92,0 162.67,-10.22 232.93,-57.29 45.85,-30.71 96.78,-85.92 96.78,-144.46 0,-47.6 -3.18,-77.08 -32.85,-116.3 -54.21,-71.65 -165.92,-115.92 -254.21,-115.92 -69.04,0 -129.94,4.24 -192.99,35.33 -41.35,20.39 -79.15,45.63 -105.16,84.48l-5.55 8.29 -8.89 -4.27c-1.24,-0.49 -3.08,-0.92 -4.5,-1.28 -3.44,-0.89 -6.91,-1.68 -10.37,-2.46 -10.88,-2.44 -21.82,-4.67 -32.76,-6.87 -31.33,-6.31 -62.74,-12.27 -94.14,-18.22 -32.58,-6.18 -65.17,-12.28 -97.74,-18.5 -12.48,-2.38 -24.95,-4.78 -37.41,-7.26 -7.72,-1.54 -15.54,-3.06 -23.2,-4.88 -11.31,-2.69 -18.72,-9.23 -20.78,-20.82 -1.44,-8.11 -0.35,-18.05 -0.49,-26.43 -0.58,-33.97 -15.77,-62.23 -36.23,-88.65 -2.61,-3.37 -5.72,-6.14 -8.55,-9.3 -4.33,-4.82 -7.08,-9.75 -8.76,-16.05l-2.97 -11.12 11.13 -2.97c6.55,-1.75 9.88,-5.31 15.13,-9.33 6.63,-5.07 13.54,-9.37 20.32,-13.96l136.93 -97.22c7.95,-6.09 16.61,-13.43 27.3,-12.39 4.46,0.43 8.57,2.17 12.62,3.99 5.06,2.27 10.03,4.57 15.18,6.64 36.24,14.58 75.67,22.67 114.54,25.76 40.86,3.25 82.76,1.11 123.06,-6.44 71,-13.29 148.49,-46.15 190.85,-107.49 28.57,-41.38 41.98,-89.06 29.68,-138.64 -11.93,-48.07 -45.38,-87.65 -84.82,-116.2 -22.87,-16.56 -51.82,-30.4 -78.17,-40.31 -29.88,-11.23 -64.17,-20.17 -96.14,-20.17l-11.52 0 0 -123.57 365.6 0 0 -342.57 -433.97 0 0 466.14 -11.52 0c-31.26,0 -65.25,9.5 -94.49,19.84 -72.54,25.65 -168.2,93.5 -168.2,178.87 0,35.97 0.11,56.51 16.92,89.28 6.05,11.79 13.37,21.98 21.59,32.3 5.54,6.96 13.63,16.09 15.94,24.74l2.97 11.13 -11.13 2.97c-6.55,1.75 -9.88,5.31 -15.12,9.32 -50.84,38.94 -106.18,72.15 -157.08,111.06 -7.99,6.11 -16.7,13.56 -27.46,12.51 -4.46,-0.43 -8.57,-2.17 -12.62,-3.99 -5.06,-2.27 -10.03,-4.57 -15.18,-6.64 -36.5,-14.68 -76.12,-22.88 -115.28,-25.98 -40.86,-3.24 -82.73,-1.05 -123,6.57 -70.84,13.41 -147.88,46.43 -190.18,107.59 -18.6,26.89 -30.77,57.35 -33.22,90.09zm988.47 194.09c0,-50.8 44.82,-90.68 86.26,-112.8 21.03,-11.22 46.69,-19.34 69.86,-25.17 54.72,-13.77 113.08,-13.77 167.8,0 50.88,12.8 87.29,28.93 124.66,66.57 8.92,8.99 15.93,18.37 21.31,29.88 12.35,26.38 13.27,57.26 -0.41,83.34 -28.47,54.28 -88.74,81.85 -145.56,96.15 -54.14,13.62 -113.69,13.74 -167.83,0 -63.91,-16.22 -156.09,-61.05 -156.09,-137.96zm-920.1 -182.8c0,-63.22 60.13,-103.97 113.13,-124.16 64.21,-24.47 143.93,-30.62 210.79,-13.8 56.82,14.3 117.09,41.87 145.56,96.15 19.31,36.82 9.07,82.51 -19.28,111.63 -17.27,17.74 -32.61,29.63 -54.26,41.77 -30.56,17.13 -74.88,28.83 -109.66,33.07 -66.79,8.12 -137.4,0.06 -197.82,-30.72 -41.67,-21.23 -88.46,-63.48 -88.46,-113.94zm848.69 -468.52l68.37 0 0 -137.04 14.13 3.29c21.89,5.1 43.3,8.66 64.71,15.88 20.85,7.03 37.73,14.6 56.56,26.01 28.32,17.16 53.86,44.12 64.52,75.9 12.08,36.01 2.5,70.18 -23.91,97.31 -44.47,45.67 -101.51,67.25 -163.93,74.84 -88.79,10.8 -187.81,-6.46 -253.24,-71.71 -18.79,-18.75 -33.04,-45.99 -33.04,-72.94 0,-42.6 35.85,-82.43 70.44,-103.38 18.53,-11.23 36.94,-19.77 57.62,-26.16 20.75,-6.41 42.48,-10.8 63.64,-15.72l14.13 -3.29 0 137.04zm68.37 -600.2l297.23 0 0 205.84 -297.23 0 0 -205.84z"/>
 </g>
</svg>
