<?xml version="1.0" encoding="UTF-8"?>
<!DOCTYPE svg PUBLIC "-//W3C//DTD SVG 1.1//EN" "http://www.w3.org/Graphics/SVG/1.1/DTD/svg11.dtd">
<!-- Creator: CorelDRAW -->
<svg xmlns="http://www.w3.org/2000/svg" xml:space="preserve" width="100mm" height="100mm" version="1.1" style="shape-rendering:geometricPrecision; text-rendering:geometricPrecision; image-rendering:optimizeQuality; fill-rule:evenodd; clip-rule:evenodd"
viewBox="0 0 1409.68 1409.68"
 xmlns:xlink="http://www.w3.org/1999/xlink"
 xmlns:xodm="http://www.corel.com/coreldraw/odm/2003">
 <defs>
  <style type="text/css">
   <![CDATA[
    .fil0 {fill:white}
   ]]>
  </style>
 </defs>
 <g id="Слой_x0020_1">
  <metadata id="CorelCorpID_0Corel-Layer"/>
  <path class="fil0" d="M-0 1032.63l0 22.45c4.31,57.08 40.37,104.97 88.32,134.23 52.01,31.74 114.37,48.92 174.97,52.58 59.75,3.61 123.02,-5.65 177.03,-32.28 37.63,-18.55 72.78,-42.13 96.46,-77.49l5.09 -7.61 8.25 3.96c3.2,1.54 9.6,2.86 13.12,3.67 8.07,1.87 16.23,3.47 24.36,5.03 15.13,2.9 30.35,5.41 45.46,8.38l177.47 34.92c4.91,0.97 9.74,1.56 14.67,2.27 4.72,0.68 9.2,1.62 12.9,4.89 4.28,3.77 5.55,8.84 5.9,14.3 0.36,5.62 0.05,11.62 -0.05,17.27 -0.25,14.81 2.31,27.47 7.36,41.3 34.73,95.25 160.71,149.16 255.94,149.16 76.06,0 149.2,-9.37 213.65,-52.55 42.06,-28.17 88.77,-78.81 88.77,-132.51 0,-43.66 -2.92,-70.7 -30.13,-106.67 -49.72,-65.72 -152.18,-106.33 -233.17,-106.33 -63.33,0 -119.18,3.89 -177.02,32.4 -37.93,18.7 -72.6,41.86 -96.46,77.49l-5.09 7.61 -8.15 -3.92c-1.14,-0.45 -2.83,-0.84 -4.12,-1.18 -3.15,-0.81 -6.33,-1.54 -9.51,-2.26 -9.98,-2.24 -20.02,-4.29 -30.04,-6.3 -28.73,-5.79 -57.55,-11.25 -86.34,-16.71 -29.88,-5.66 -59.77,-11.26 -89.65,-16.97 -11.45,-2.19 -22.89,-4.38 -34.31,-6.66 -7.08,-1.41 -14.25,-2.81 -21.28,-4.48 -10.38,-2.47 -17.17,-8.46 -19.06,-19.1 -1.32,-7.44 -0.32,-16.56 -0.45,-24.24 -0.53,-31.16 -14.47,-57.08 -33.23,-81.31 -2.4,-3.09 -5.24,-5.63 -7.84,-8.53 -3.97,-4.42 -6.49,-8.95 -8.04,-14.73l-2.72 -10.2 10.2 -2.73c6.01,-1.6 9.06,-4.87 13.87,-8.56 6.08,-4.65 12.42,-8.59 18.64,-12.8l125.59 -89.18c7.29,-5.58 15.23,-12.32 25.04,-11.36 4.09,0.4 7.86,1.99 11.57,3.66 4.64,2.08 9.2,4.19 13.93,6.09 33.24,13.37 69.41,20.79 105.06,23.63 37.48,2.98 75.91,1.01 112.87,-5.91 65.12,-12.19 136.2,-42.33 175.05,-98.59 26.21,-37.95 38.51,-81.69 27.23,-127.17 -10.94,-44.09 -41.63,-80.4 -77.8,-106.58 -20.98,-15.19 -47.53,-27.89 -71.7,-36.97 -27.4,-10.3 -58.86,-18.5 -88.18,-18.5l-10.56 0 0 -113.35 335.34 0 0 -314.22 -398.05 0 0 427.57 -10.56 0c-28.67,0 -59.85,8.71 -86.67,18.19 -66.54,23.53 -154.28,85.76 -154.28,164.07 0,32.99 0.1,51.83 15.52,81.89 5.55,10.82 12.26,20.16 19.8,29.63 5.08,6.38 12.5,14.76 14.62,22.69l2.73 10.21 -10.21 2.73c-6.01,1.6 -9.06,4.87 -13.87,8.55 -46.63,35.71 -97.4,66.18 -144.08,101.87 -7.33,5.6 -15.32,12.44 -25.19,11.48 -4.09,-0.4 -7.86,-1.99 -11.58,-3.66 -4.64,-2.08 -9.2,-4.19 -13.93,-6.09 -33.48,-13.47 -69.82,-20.98 -105.74,-23.83 -37.48,-2.97 -75.88,-0.97 -112.82,6.03 -64.98,12.3 -135.64,42.59 -174.44,98.68 -17.06,24.66 -28.22,52.6 -30.47,82.63zm906.66 178.03c0,-46.6 41.11,-83.18 79.12,-103.46 19.29,-10.29 42.83,-17.74 64.08,-23.08 50.19,-12.63 103.73,-12.63 153.92,0 46.67,11.74 80.07,26.54 114.34,61.06 8.18,8.24 14.61,16.85 19.55,27.4 11.32,24.19 12.17,52.52 -0.37,76.44 -26.11,49.79 -81.4,75.08 -133.52,88.19 -49.66,12.49 -104.28,12.61 -153.94,0 -58.62,-14.88 -143.17,-56 -143.17,-126.54zm-843.95 -167.67c0,-57.99 55.16,-95.36 103.77,-113.89 58.9,-22.45 132.02,-28.09 193.34,-12.66 52.12,13.11 107.4,38.4 133.52,88.19 17.71,33.77 8.32,75.68 -17.68,102.39 -15.84,16.27 -29.91,27.18 -49.77,38.31 -28.03,15.71 -68.68,26.45 -100.58,30.33 -61.26,7.45 -126.03,0.06 -181.45,-28.17 -38.22,-19.47 -81.14,-58.23 -81.14,-104.51zm778.45 -429.75l62.71 0 0 -125.7 12.96 3.02c20.08,4.68 39.72,7.94 59.35,14.56 19.13,6.45 34.61,13.39 51.88,23.85 25.98,15.74 49.4,40.47 59.18,69.61 11.08,33.03 2.29,64.37 -21.93,89.25 -40.79,41.89 -93.11,61.68 -150.36,68.64 -81.45,9.91 -172.27,-5.93 -232.28,-65.77 -17.24,-17.19 -30.31,-42.18 -30.31,-66.91 0,-39.07 32.89,-75.6 64.61,-94.83 17,-10.3 33.88,-18.13 52.85,-24 19.03,-5.88 38.96,-9.9 58.37,-14.42l12.96 -3.02 0 125.7zm62.71 -550.53l272.64 0 0 188.8 -272.64 0 0 -188.8z"/>
 </g>
</svg>
