<?xml version="1.0" encoding="utf-8"?>
<!-- Generator: Adobe Illustrator 26.3.1, SVG Export Plug-In . SVG Version: 6.00 Build 0)  -->
<svg version="1.1" baseProfile="tiny" id="Шар_1" xmlns:xodm="http://www.corel.com/coreldraw/odm/2003"
	 xmlns="http://www.w3.org/2000/svg" xmlns:xlink="http://www.w3.org/1999/xlink" x="0px" y="0px" viewBox="0 0 258 283.5"
	 overflow="visible" xml:space="preserve">
<g id="Слой_x0020_1">
	<g id="_1996022193296">
		<path fill-rule="evenodd" fill="#32CD32" d="M169.4,275.2c-3.9-0.3-4.4-3.6-5.8-7c-2-4.7-11.7-24.9-11.9-27.9
			c6.7-3.5,16.3-12.6,17.7-18.8c12.6,2.9,22.1,3.9,34.7-2.4c8.1-4,11.6-8.7,13.5-9.2c1.2,5.1,14.9,32.7,14.9,35.4
			c0,4.5-6.8,1.3-9.3,0.5l-32.7-10.4c-3.5,0-5,5.8-6.3,8.7c-1.7,3.7-3.2,7-4.8,10.7l-7,15.7c-0.4,1-0.8,1.8-1.2,2.6
			C170.4,274.2,170.4,274.2,169.4,275.2L169.4,275.2z M126.1,0h5.8c7.9,0.5,15.7,3.2,22.9,8c4.8,3.2,13.3,11.2,14.6,16.9
			c4.6-1.1,8.1-2.2,13.8-2.2c5.4,0,21.6,1.2,21.6,7.8c0,1.8-1.3,3.4-2.7,4c-2.8,1.2-14.7-6.1-28.6-1.5c-11.6,3.8-7.6,1.4-13.5-7.4
			C143.6,0.8,108,2.7,94.8,31.6c-2.7,6-7.6,1.6-13.3,0.4c-9.6-2-20.5,0.4-27.7,5.2C45.6,42.6,37.1,53.6,37.1,67
			c0,5.3,1.6,9.6,1.7,13.3h20.5c0.9-3.2,9.2-12.8,11.8-15.4c4.5-4.5,9.9-8.5,15.3-11.8c5.7-3.4,11.4-6.3,18.7-8.5
			c20.9-6.2,43.3-4.2,62.4,6.1c7.1,3.9,13.9,8.4,19.6,14.2c2.6,2.6,10.9,12.2,11.8,15.4h20.5c0.1-3.7,1.7-6,1.7-10.5
			c0-8.3-1.9-16-6.4-22.4c-0.9-1.3-3-3.6-3-5.3c0-4.2,6.8-9.6,14.2,7.9c3.4,7.9,4.4,15.4,3.4,24.7c-0.2,1.8-0.9,3.7-1,5.6
			c13.2,0,22.5,3.3,27.5,14c1.5,3.2,2.4,7,2.4,11.5v34.9c0,8.8-3.5,15.3-8.4,19.3c-6.4,5.3-10.2,6.1-21.5,6.1
			c0.3,3.9,1.7,8.3,1.7,12.2c0,7.9-2.5,17-6.6,23.3c1,4.1,7.7,17.9,9.6,22c1.7,3.7,3.2,7.1,4.8,10.7c2.9,6.6,6.4,12.7,0.2,19
			c-5.2,5.2-11.9,2.5-18,0.5c-5.5-1.8-23.5-8.3-27.1-8.4c-1,4.1-2.8,7.2-4.6,10.9c-0.9,1.9-1.5,3.4-2.4,5.4c-3.4,7.4-7.3,22-16.2,22
			c-11,0-12.6-9.3-16.2-17.5c-3.2-7.2-6.2-14.9-9.8-21.8c-6.6,3.2-22.2,3.2-28.8,0c-3.7,7-6.7,14.8-10,22.2c-1.6,3.7-3.2,7.6-5,11.1
			c-4.2,8.2-16.1,7.8-20.3-0.2c-1-1.9-1.5-3.6-2.4-5.4c-2-4-10.8-22.8-11.6-26.6c-6.6,0.1-30.4,11.1-36.5,11.1
			c-6.3,0-12.2-4.3-12.2-11.1c0-3.2,5.6-17.7,8.9-17.7c1.9,0,5,0.7,5,3.3c0,2.6-1.5,5.6-2.6,7.9c-4.2,8.9-3.1,10.3,6.9,6.9
			c38.3-12.8,33.1-13.9,39.2-1.4l9.4,21c0.8,1.9,1.6,3.5,2.4,5.4l2.8,4.4c4-0.3,4.5-4,5.9-7.4c2.2-5.2,11.4-23.3,11.8-27.5
			c-2.5-1.3-3.4-1.9-5.7-3.7c-1.8-1.5-3.2-2.4-4.7-4.1c-1.9-2.1-6.7-8.1-7.3-10.9c-4.1,0.9-7.7,2.2-12.7,2.2
			c-25.4,0-30.8-12.6-35.4-13.8c-2.9,12.6-10.5,8.4-10.5,4.4c0-3.2,4.2-9.3,5-12.7c-5.8-8.6-7.1-19.4-6-29.8c0.2-1.8,0.9-3.7,1-5.6
			c-11.3,0-15.2-0.9-21.5-6.1c-4.9-4-8.4-10.5-8.4-19.3v-34.9c0-4.5,0.9-8.3,2.4-11.5c5-10.7,14.4-14,27.5-14
			c-0.3-3.9-1.7-8.3-1.7-12.2c0-17.5,10.8-33.7,26.4-41.2c4.5-2.1,11.6-4.2,17.9-4.2c9.9,0,10.9,1.8,16.1,2.2
			c1.3-5.7,9.8-13.7,14.6-16.9C110.5,3.2,118.3,0.5,126.1,0L126.1,0z M37.1,179.4c0-4.7,0.3-9.4,2.2-13.3h19.9
			c0.9,3.4,8.9,12.5,11.5,15.1c29.6,29.6,74.8,32.3,108.9,6.8c5.5-4.1,17.8-16.8,19.1-21.8h19.9c5.4,11.2,1.3,28.3-8.7,38.3
			c-4.7,4.7-10.8,8.1-17.4,9.7c-14.3,3.6-21.9-2.7-25.3-2.5c-3.1,0.1-3.9,3.1-5,5.4c-13,26.5-47.2,26.6-62,7.2
			c-1.5-1.9-2.8-4-4.1-6.5c-4.5-9-3.8-6.2-12.4-3.9c-8.9,2.3-16.3,1.9-24.5-1.8c-2.2-1-3.7-1.7-5.7-3.1
			C44,202.5,37.1,191.5,37.1,179.4L37.1,179.4z M69.2,166.1h119.6c-2,2.9-7.3,9.1-10.1,11.5c-11.9,10-28.2,19-45.8,19
			c-16.6,0-27.4-1.8-41-9.9C83.2,181.4,74.9,174.6,69.2,166.1L69.2,166.1z M234.2,157.2H23.8c-8.3,0-14.9-7.4-14.9-13.8v-39.3
			c0-8,6.9-14.9,14.9-14.9h210.4c8,0,14.9,6.9,14.9,14.9v38.2C249.1,150.4,242.3,157.2,234.2,157.2z M125.7,49.8
			c18.5,0,31.4,3.2,46.5,13.8c5.5,3.9,12.9,11.1,16.6,16.6h-119c1.1-4.2,11.8-13.4,15.7-16.4C95.2,56.6,111.6,49.8,125.7,49.8
			L125.7,49.8z"/>
		<path fill-rule="evenodd" fill="#32CD32" d="M184.4,119.6h-5v-10.5c5.6,0,11.1-1,11.1,5.5C190.5,118,187.8,119.6,184.4,119.6
			L184.4,119.6z M170.5,105.2v36.5c0,5.8,8.3,6.3,8.9-0.5c0.2-3.1,0-7.3,0-10.5l7.3,8.2c1.8,1.9,5.3,7.3,8.2,7.3c3.1,0,4.4-2,4.4-5
			c0-1.7-3.9-5.2-5-6.6c-1.8-2.4-3.8-4-5.5-6.6c3.3-1.7,4.8-1.9,7.3-4.8c7.5-8.6,1.2-22.8-11.8-22.8
			C177.6,100.2,170.5,98.8,170.5,105.2L170.5,105.2z"/>
		<path fill-rule="evenodd" fill="#32CD32" d="M57.6,104.6c0,2.4,3.1,5.5,5.2,8.6c2.1,3,3.9,5.6,5.9,8.5l-6.5,9.5
			c-2.6,3.9-6.2,7.3-6.2,11.5c0,1.6,4.3,6.5,8.5,0.2l9.7-13.5c1.9,2.9,4,5.9,6.2,8.8c1.7,2.3,4.2,7.8,7.7,7.8c2.6,0,4.4-2.2,4.4-4.4
			c0-1.5-8.1-12.8-9.8-15.1c-1.2-1.6-2.5-3.3-3.5-4.8l5.6-7.7c3.8-5.1,5.5-6.7,5.5-10.6c0-1.9-4.5-5.8-7.8-1.1
			c-1.7,2.5-7.2,9.8-7.7,11.7c-2.3-0.6-4.8-5.3-6.1-7.2c-1.4-1.9-3.7-6.6-6.6-6.6C59.3,100.2,57.6,102,57.6,104.6L57.6,104.6z"/>
		<path fill-rule="evenodd" fill="#32CD32" d="M114.6,121.2h-5.5v-12.2c5.5,0,12.2-1.2,12.2,6.6
			C121.2,119.2,118.2,121.2,114.6,121.2L114.6,121.2z M100.2,106.3v33.8c0,8.2,8.9,7.5,8.9,1.7v-11.6h4.4c22.7,0,21.1-29.9,1.1-29.9
			C106.2,100.2,100.2,98.6,100.2,106.3z"/>
		<path fill-rule="evenodd" fill="#32CD32" d="M23.3,106.3v34.9c0,2.3,1.9,5,3.9,5c5.3,0,17.2,1,19.2-1.2c2.4-2.6,1.4-7.6-4.9-7.6
			h-9.4v-9.4c4.8,0,14.4,1.2,14.4-4.4c0-5.8-8.5-4.4-14.4-4.4v-10c6.4,0,15.5,1.5,15.5-3.9c0-2.7-1.8-4.4-4.4-4.4
			C29.1,100.8,23.3,98.7,23.3,106.3L23.3,106.3z"/>
		<path fill-rule="evenodd" fill="#32CD32" d="M138.4,104.1v37.6c0,6.3,9,4.4,19.4,4.4c5.6,0,7-8.9-1.1-8.9h-10v-9.4
			c9.8,0,14.4,1.4,14.4-5.5c0-4.6-9.9-3.3-14.4-3.3v-10c11,0,15.5,1.6,15.5-4.4c0-2.6-1.3-3.9-3.9-3.9h-16.6
			C140.4,100.8,138.4,102.7,138.4,104.1L138.4,104.1z"/>
		<path fill-rule="evenodd" fill="#32CD32" d="M205.4,104.1c0,6.1,6.3,5,10.5,5v33.8c0,3.8,8.3,5.3,8.3-1.1v-32.7
			c3,0,10.5,0.9,10.5-4.4c0-2.6-2.3-4.4-5-4.4h-18.8C208,100.2,205.4,101.3,205.4,104.1L205.4,104.1z"/>
	</g>
</g>
</svg>
