<?xml version="1.0" encoding="UTF-8"?>
<!DOCTYPE svg PUBLIC "-//W3C//DTD SVG 1.1//EN" "http://www.w3.org/Graphics/SVG/1.1/DTD/svg11.dtd">
<!-- Creator: CorelDRAW -->
<svg xmlns="http://www.w3.org/2000/svg" xml:space="preserve" width="91.0156mm" height="100mm" version="1.1" style="shape-rendering:geometricPrecision; text-rendering:geometricPrecision; image-rendering:optimizeQuality; fill-rule:evenodd; clip-rule:evenodd"
viewBox="0 0 1446.43 1589.21"
 xmlns:xlink="http://www.w3.org/1999/xlink"
 xmlns:xodm="http://www.corel.com/coreldraw/odm/2003">
 <defs>
  <style type="text/css">
   <![CDATA[
    .fil0 {fill:white}
   ]]>
  </style>
 </defs>
 <g id="Слой_x0020_1">
  <metadata id="CorelCorpID_0Corel-Layer"/>
  <g id="_1996016450832">
   <path class="fil0" d="M949.8 1542.65c-21.77,-1.81 -24.58,-20.32 -32.35,-39.04 -11.02,-26.54 -65.57,-139.66 -66.97,-156.51 37.48,-19.83 91.24,-70.82 99.33,-105.53 70.68,16.47 124.03,21.61 194.55,-13.41 45.18,-22.43 64.82,-48.93 75.49,-51.77 6.63,28.48 83.81,183.23 83.81,198.65 0,25.41 -38.16,7.45 -52.37,2.71l-183.53 -58.58c-19.52,0 -27.76,32.74 -35.16,48.64 -9.7,20.83 -17.75,39.42 -26.97,59.95l-39.4 87.86c-2.43,5.75 -4.54,10.29 -7.01,14.72 -3.94,7.1 -3.92,7.1 -9.41,12.31zm-242.7 -1542.65l32.24 0c44.11,2.92 87.88,17.8 128.54,44.67 26.97,17.83 74.41,62.78 81.92,95 25.58,-5.96 45.27,-12.42 77.6,-12.42 30.23,0 121.05,6.96 121.05,43.46 0,10.15 -7.36,18.84 -15.33,22.2 -15.87,6.7 -82.66,-34.22 -160.49,-8.69 -65.31,21.42 -42.82,7.74 -75.54,-41.5 -91.91,-138.29 -291.86,-127.68 -365.79,34.71 -15.23,33.46 -42.85,8.8 -74.61,2.18 -53.68,-11.19 -114.73,2.34 -155.06,28.87 -45.99,30.26 -93.65,91.85 -93.65,167.08 0,29.93 8.85,53.86 9.31,74.49l114.84 0c4.82,-18.03 51.58,-71.79 65.93,-86.17 25.32,-25.38 55.29,-47.74 85.98,-66.11 31.84,-19.05 63.95,-35.49 104.6,-47.5 117.39,-34.67 242.89,-23.6 349.79,34.24 39.97,21.63 77.96,47.28 109.97,79.37 14.34,14.38 61.11,68.13 65.93,86.17l114.84 0c0.46,-20.83 9.31,-33.62 9.31,-58.97 0,-46.58 -10.8,-89.58 -35.98,-125.42 -5.15,-7.34 -16.78,-20.29 -16.78,-29.78 0,-23.57 38.11,-53.72 79.87,44.29 18.78,44.08 24.62,86.31 18.97,138.36 -1.09,10.05 -4.83,20.83 -5.72,31.53 73.79,0 126.08,18.36 154.24,78.56 8.38,17.92 13.37,39.09 13.37,64.22l0 195.55c0,49.46 -19.49,85.69 -46.89,108.3 -35.7,29.46 -57.4,34.48 -120.72,34.48 1.83,21.96 9.31,46.59 9.31,68.29 0,44.54 -13.77,95.3 -37.25,130.37 5.38,23.07 43.16,100.32 53.81,123.11 9.68,20.71 18,39.99 26.81,60.1 16.32,37.27 35.96,71.29 1.03,106.39 -29.05,29.19 -66.65,13.89 -100.66,2.56 -31.07,-10.35 -131.55,-46.51 -151.7,-46.95 -5.36,22.99 -15.87,40.27 -25.9,61.01 -5.17,10.69 -8.38,19.28 -13.41,30.05 -19.3,41.3 -41.04,123.11 -91.06,123.11 -61.6,0 -70.65,-52.29 -91.08,-98.27 -17.92,-40.32 -34.52,-83.77 -54.81,-122.11 -36.91,17.71 -124.49,17.71 -161.4,0 -20.87,39.45 -37.73,83.01 -55.78,124.24 -9.14,20.87 -17.86,42.45 -27.93,62.09 -23.5,45.85 -90.09,43.67 -114.03,-1 -5.63,-10.49 -8.3,-20.14 -13.29,-30.17 -11.11,-22.34 -60.34,-128.03 -65.22,-148.96 -36.85,0.82 -170.57,62.08 -204.86,62.08 -35.37,0 -68.29,-24.35 -68.29,-62.08 0,-17.83 31.53,-99.33 49.66,-99.33 10.91,0 27.94,4.08 27.94,18.62 0,14.33 -8.44,31.59 -14.48,44.5 -23.29,49.77 -17.28,57.68 38.91,38.91 214.89,-71.74 185.66,-78.2 219.71,-7.85l52.94 117.77c4.63,10.76 8.75,19.64 13.34,30.12l15.49 24.86c22.51,-1.87 25.1,-22.3 33.25,-41.24 12.49,-29.03 64.1,-130.6 66.07,-154.31 -14.25,-7.54 -19.3,-10.76 -31.76,-21.01 -10.06,-8.28 -17.67,-13.58 -26.49,-23.18 -10.88,-11.85 -37.38,-45.47 -41.08,-61.35 -22.84,5.32 -43.06,12.41 -71.39,12.41 -142.19,0 -172.68,-70.66 -198.65,-77.6 -16.42,70.46 -58.98,46.95 -58.98,24.83 0,-18.02 23.51,-52.38 27.94,-71.39 -32.37,-48.34 -40.02,-108.54 -33.66,-167.13 1.09,-10.05 4.83,-20.83 5.72,-31.53 -63.32,0 -85.02,-5.02 -120.72,-34.48 -27.41,-22.62 -46.89,-58.84 -46.89,-108.3l0 -195.55c0,-25.14 4.99,-46.31 13.37,-64.22 28.09,-60.05 80.63,-78.56 154.24,-78.56 -1.83,-21.96 -9.31,-46.59 -9.31,-68.29 0,-98.25 60.83,-189.2 147.9,-230.78 25.14,-12.01 64.93,-23.74 100.41,-23.74 55.57,0 61.13,10.01 90.01,12.42 7.5,-32.17 54.74,-77.04 81.92,-95 40.65,-26.87 84.43,-41.76 128.55,-44.67zm-499.14 1005.67c0,-26.16 1.89,-52.56 12.42,-74.49l111.74 0c5.02,18.8 49.73,69.92 64.4,84.59 166.09,166.09 419.59,181.05 610.53,37.85 30.6,-22.95 99.79,-94.44 107.26,-122.43l111.74 0c30.22,62.98 7.28,158.48 -48.87,214.96 -26.46,26.61 -60.27,45.19 -97.56,54.54 -80.29,20.12 -122.9,-14.87 -141.95,-14.12 -17.29,0.68 -21.8,17.18 -28.2,30.2 -72.93,148.34 -264.49,149.3 -347.74,40.41 -8.29,-10.85 -15.81,-22.57 -22.73,-36.24 -25.43,-50.25 -21.51,-34.49 -69.62,-22.12 -50.08,12.88 -91.53,10.82 -137.4,-9.86 -12.19,-5.5 -20.95,-9.8 -32.21,-17.46 -53.27,-36.25 -91.81,-98.1 -91.81,-165.81zm180.03 -74.49l670.45 0c-10.97,16.37 -40.79,50.88 -56.79,64.27 -66.77,55.91 -157.97,106.45 -256.71,106.45 -92.98,0 -153.87,-9.88 -229.87,-55.69 -48.66,-29.34 -95.22,-67.44 -127.08,-115.02zm924.97 -49.66l-1179.49 0c-46.58,0 -83.81,-41.43 -83.81,-77.6l0 -220.38c0,-45.03 38.77,-83.81 83.81,-83.81l1179.49 0c45.03,0 83.81,38.77 83.81,83.81l0 214.17c0,45.74 -38.07,83.81 -83.81,83.81zm-608.37 -602.16c103.7,0 175.94,17.77 260.72,77.61 30.72,21.69 72.48,62.28 93.13,93.11l-667.35 0c6.25,-23.41 66.37,-75.38 88.2,-91.83 54.21,-40.86 146.23,-78.88 225.3,-78.88z"/>
   <path class="fil0" d="M1033.61 670.45l-27.94 0 0 -58.98c31.35,0 62.08,-5.47 62.08,31.04 0,19.05 -14.77,27.94 -34.14,27.94zm-77.6 -80.7l0 204.86c0,32.37 46.63,35.32 49.69,-3.08 1.36,-17.12 -0.03,-41.12 -0.03,-59l41.16 45.75c10.12,10.4 29.69,41.16 45.75,41.16 17.53,0 24.83,-11.29 24.83,-27.94 0,-9.78 -21.86,-29.31 -27.94,-37.25 -10.18,-13.32 -21.03,-22.31 -31.04,-37.25 18.42,-9.75 27.01,-10.85 41.19,-27.09 42.02,-48.12 6.57,-128.1 -66.03,-128.1 -37.89,0 -77.6,-7.94 -77.6,27.94z"/>
   <path class="fil0" d="M322.81 586.64c0,13.56 17.1,30.91 29.2,48.4 11.81,17.07 21.91,31.44 32.88,47.83l-36.63 53.38c-14.81,21.72 -34.76,40.74 -34.76,64.57 0,9.03 24.25,36.67 47.9,1.35l54.53 -75.84c10.87,16.24 22.7,33.14 34.62,49.19 9.64,12.98 23.3,43.93 42.98,43.93 14.71,0 24.83,-12.62 24.83,-24.83 0,-8.64 -45.3,-71.73 -55,-84.68 -6.68,-8.92 -13.88,-18.68 -19.5,-27.06l31.51 -42.98c21.21,-28.56 30.57,-37.53 30.57,-59.45 0,-10.92 -25.17,-32.47 -43.61,-6.36 -9.72,13.76 -40.57,55.14 -43.3,65.34 -12.84,-3.43 -26.68,-29.87 -34.13,-40.36 -7.67,-10.81 -20.86,-37.24 -37.26,-37.24 -15.01,0 -24.83,9.82 -24.83,24.83z"/>
   <path class="fil0" d="M642.51 679.76l-31.04 0 0 -68.29c30.94,0 68.29,-6.92 68.29,37.25 0,19.42 -17.21,31.04 -37.25,31.04zm-80.7 -83.81l0 189.34c0,45.83 49.66,42.23 49.66,9.31l0 -65.18 24.83 0c127.02,0 118.33,-167.61 6.21,-167.61 -47.09,0 -80.7,-8.85 -80.7,34.14z"/>
   <path class="fil0" d="M130.36 595.95l0 195.55c0,12.8 10.43,27.94 21.73,27.94 29.59,0 96.61,5.48 107.91,-6.94 13.46,-14.8 7.75,-42.73 -27.21,-42.73l-52.77 0 0 -52.77c27.02,0 80.7,6.75 80.7,-24.83 0,-32.62 -47.77,-24.83 -80.7,-24.83l0 -55.87c35.83,0 86.91,8.24 86.91,-21.73 0,-15.01 -9.82,-24.83 -24.83,-24.83 -78.95,0 -111.74,-11.41 -111.74,31.04z"/>
   <path class="fil0" d="M775.98 583.54l0 211.07c0,35.54 50.28,24.83 108.64,24.83 31.22,0 39.06,-49.66 -6.21,-49.66l-55.87 0 0 -52.77c55.17,0 80.7,7.73 80.7,-31.04 0,-25.51 -55.66,-18.62 -80.7,-18.62l0 -55.87c61.79,0 86.91,8.72 86.91,-24.83 0,-14.49 -7.24,-21.73 -21.73,-21.73l-93.12 0c-7.47,0 -18.62,11.15 -18.62,18.62z"/>
   <path class="fil0" d="M1151.56 583.54c0,34.04 35.42,27.94 58.98,27.94l0 189.34c0,21.15 46.56,29.47 46.56,-6.21l0 -183.13c16.59,0 58.98,4.78 58.98,-24.83 0,-14.56 -12.89,-24.83 -27.94,-24.83l-105.53 0c-16.25,0 -31.04,6.23 -31.04,21.73z"/>
  </g>
 </g>
</svg>
