<?xml version="1.0" encoding="UTF-8"?>
<!DOCTYPE svg PUBLIC "-//W3C//DTD SVG 1.1//EN" "http://www.w3.org/Graphics/SVG/1.1/DTD/svg11.dtd">
<!-- Creator: CorelDRAW -->
<svg xmlns="http://www.w3.org/2000/svg" xml:space="preserve" width="91.0156mm" height="100mm" version="1.1" style="shape-rendering:geometricPrecision; text-rendering:geometricPrecision; image-rendering:optimizeQuality; fill-rule:evenodd; clip-rule:evenodd"
viewBox="0 0 1311.94 1441.45"
 xmlns:xlink="http://www.w3.org/1999/xlink"
 xmlns:xodm="http://www.corel.com/coreldraw/odm/2003">
 <defs>
  <style type="text/css">
   <![CDATA[
    .fil0 {fill:limegreen}
   ]]>
  </style>
 </defs>
 <g id="Слой_x0020_1">
  <metadata id="CorelCorpID_0Corel-Layer"/>
  <g id="_1996022193296">
   <path class="fil0" d="M861.49 1399.22c-19.74,-1.64 -22.3,-18.43 -29.34,-35.41 -9.99,-24.08 -59.47,-126.67 -60.75,-141.96 34,-17.99 82.75,-64.23 90.09,-95.72 64.11,14.94 112.5,19.6 176.46,-12.16 40.98,-20.35 58.79,-44.38 68.47,-46.96 6.02,25.83 76.01,166.19 76.01,180.18 0,23.05 -34.61,6.76 -47.5,2.46l-166.46 -53.13c-17.71,0 -25.18,29.7 -31.89,44.12 -8.8,18.89 -16.1,35.75 -24.46,54.37l-35.73 79.69c-2.21,5.22 -4.12,9.33 -6.35,13.35 -3.58,6.44 -3.55,6.44 -8.54,11.17zm-220.13 -1399.22l29.24 0c40.01,2.65 79.71,16.14 116.59,40.52 24.46,16.17 67.49,56.94 74.3,86.17 23.21,-5.41 41.06,-11.26 70.38,-11.26 27.42,0 109.8,6.31 109.8,39.41 0,9.2 -6.68,17.08 -13.91,20.14 -14.39,6.08 -74.97,-31.04 -145.57,-7.88 -59.24,19.43 -38.84,7.02 -68.52,-37.64 -83.36,-125.43 -264.73,-115.81 -331.78,31.48 -13.82,30.35 -38.87,7.99 -67.67,1.98 -48.69,-10.15 -104.06,2.12 -140.64,26.19 -41.72,27.45 -84.95,83.31 -84.95,151.54 0,27.15 8.03,48.86 8.45,67.57l104.17 0c4.37,-16.36 46.79,-65.12 59.8,-78.16 22.97,-23.02 50.15,-43.31 77.99,-59.96 28.88,-17.28 58,-32.19 94.87,-43.08 106.47,-31.45 220.31,-21.41 317.27,31.05 36.26,19.62 70.71,42.88 99.75,71.99 13.01,13.04 55.43,61.8 59.8,78.16l104.17 0c0.42,-18.89 8.45,-30.49 8.45,-53.49 0,-42.25 -9.8,-81.25 -32.64,-113.76 -4.67,-6.65 -15.22,-18.4 -15.22,-27.01 0,-21.38 34.57,-48.72 72.44,40.17 17.04,39.98 22.33,78.28 17.21,125.49 -0.99,9.12 -4.38,18.89 -5.19,28.59 66.93,0 114.36,16.65 139.9,71.25 7.6,16.25 12.13,35.45 12.13,58.25l0 177.37c0,44.86 -17.68,77.72 -42.53,98.23 -32.38,26.72 -52.06,31.27 -109.49,31.27 1.66,19.92 8.45,42.26 8.45,61.94 0,40.4 -12.49,86.44 -33.78,118.24 4.88,20.93 39.15,91 48.81,111.67 8.78,18.78 16.33,36.27 24.31,54.51 14.8,33.8 32.61,64.66 0.93,96.5 -26.35,26.48 -60.45,12.6 -91.3,2.32 -28.18,-9.39 -119.32,-42.18 -137.59,-42.59 -4.86,20.85 -14.39,36.53 -23.49,55.34 -4.69,9.7 -7.6,17.48 -12.16,27.25 -17.5,37.46 -37.22,111.67 -82.59,111.67 -55.87,0 -64.08,-47.43 -82.61,-89.13 -16.25,-36.57 -31.31,-75.98 -49.71,-110.76 -33.48,16.06 -112.91,16.06 -146.4,0 -18.93,35.78 -34.23,75.29 -50.6,112.69 -8.29,18.93 -16.2,38.51 -25.33,56.31 -21.32,41.58 -81.71,39.61 -103.43,-0.91 -5.1,-9.52 -7.53,-18.27 -12.05,-27.36 -10.08,-20.26 -54.73,-116.13 -59.15,-135.11 -33.43,0.75 -154.71,56.31 -185.81,56.31 -32.08,0 -61.94,-22.09 -61.94,-56.31 0,-16.17 28.6,-90.09 45.05,-90.09 9.89,0 25.34,3.7 25.34,16.89 0,13 -7.65,28.65 -13.13,40.36 -21.13,45.14 -15.67,52.31 35.3,35.3 194.91,-65.07 168.39,-70.93 199.28,-7.12l48.02 106.82c4.2,9.76 7.94,17.81 12.1,27.32l14.05 22.55c20.42,-1.7 22.76,-20.22 30.16,-37.41 11.33,-26.33 58.14,-118.46 59.93,-139.96 -12.93,-6.84 -17.51,-9.76 -28.81,-19.05 -9.12,-7.51 -16.03,-12.31 -24.02,-21.02 -9.87,-10.75 -33.91,-41.24 -37.26,-55.64 -20.72,4.83 -39.06,11.26 -64.75,11.26 -128.97,0 -156.62,-64.09 -180.18,-70.38 -14.89,63.91 -53.49,42.59 -53.49,22.52 0,-16.35 21.32,-47.51 25.34,-64.75 -29.36,-43.84 -36.3,-98.45 -30.53,-151.59 0.99,-9.12 4.38,-18.89 5.19,-28.59 -57.43,0 -77.12,-4.56 -109.49,-31.27 -24.86,-20.51 -42.53,-53.37 -42.53,-98.23l0 -177.37c0,-22.8 4.53,-42 12.13,-58.25 25.48,-54.47 73.13,-71.25 139.9,-71.25 -1.66,-19.92 -8.45,-42.26 -8.45,-61.94 0,-89.11 55.17,-171.6 134.15,-209.32 22.81,-10.89 58.89,-21.54 91.08,-21.54 50.41,0 55.45,9.08 81.64,11.26 6.8,-29.18 49.65,-69.88 74.3,-86.17 36.87,-24.37 76.58,-37.88 116.6,-40.52zm-452.73 912.17c0,-23.72 1.72,-47.68 11.26,-67.57l101.35 0c4.55,17.05 45.11,63.42 58.41,76.72 150.65,150.65 380.57,164.22 553.76,34.33 27.76,-20.82 90.51,-85.66 97.29,-111.05l101.35 0c27.41,57.13 6.61,143.74 -44.33,194.98 -24,24.14 -54.67,40.99 -88.49,49.46 -72.82,18.25 -111.48,-13.49 -128.75,-12.8 -15.69,0.62 -19.78,15.58 -25.58,27.39 -66.15,134.55 -239.9,135.41 -315.4,36.65 -7.52,-9.84 -14.34,-20.47 -20.62,-32.87 -23.06,-45.58 -19.51,-31.29 -63.15,-20.06 -45.42,11.68 -83.02,9.82 -124.63,-8.94 -11.06,-4.98 -19,-8.89 -29.21,-15.83 -48.32,-32.88 -83.28,-88.97 -83.28,-150.4zm163.29 -67.57l608.11 0c-9.95,14.85 -37,46.15 -51.51,58.29 -60.56,50.71 -143.28,96.55 -232.84,96.55 -84.34,0 -139.56,-8.96 -208.5,-50.52 -44.13,-26.61 -86.36,-61.17 -115.27,-104.33zm838.97 -45.05l-1069.82 0c-42.25,0 -76.01,-37.58 -76.01,-70.38l0 -199.89c0,-40.84 35.17,-76.01 76.01,-76.01l1069.82 0c40.85,0 76.01,35.17 76.01,76.01l0 194.26c0,41.48 -34.53,76.01 -76.01,76.01zm-551.8 -546.17c94.05,0 159.58,16.11 236.48,70.39 27.87,19.67 65.74,56.49 84.47,84.45l-605.3 0c5.67,-21.23 60.2,-68.37 80,-83.29 49.17,-37.06 132.63,-71.55 204.35,-71.55z"/>
   <path class="fil0" d="M937.5 608.11l-25.34 0 0 -53.49c28.44,0 56.31,-4.96 56.31,28.15 0,17.28 -13.4,25.34 -30.97,25.34zm-70.38 -73.2l0 185.81c0,29.36 42.29,32.04 45.07,-2.79 1.24,-15.52 -0.03,-37.3 -0.03,-53.52l37.34 41.49c9.18,9.43 26.93,37.33 41.49,37.33 15.9,0 22.52,-10.24 22.52,-25.34 0,-8.87 -19.83,-26.58 -25.34,-33.78 -9.23,-12.08 -19.08,-20.23 -28.15,-33.78 16.7,-8.84 24.5,-9.84 37.36,-24.57 38.11,-43.65 5.96,-116.19 -59.89,-116.19 -34.37,0 -70.38,-7.2 -70.38,25.34z"/>
   <path class="fil0" d="M292.79 532.1c0,12.3 15.51,28.04 26.49,43.9 10.71,15.48 19.87,28.52 29.82,43.38l-33.23 48.42c-13.43,19.7 -31.53,36.95 -31.53,58.56 0,8.19 21.99,33.26 43.45,1.22l49.46 -68.79c9.86,14.73 20.59,30.06 31.4,44.62 8.74,11.77 21.13,39.84 38.99,39.84 13.34,0 22.52,-11.44 22.52,-22.52 0,-7.84 -41.09,-65.06 -49.88,-76.81 -6.06,-8.09 -12.59,-16.94 -17.68,-24.54l28.58 -38.99c19.24,-25.91 27.72,-34.04 27.72,-53.92 0,-9.91 -22.83,-29.45 -39.56,-5.77 -8.81,12.48 -36.8,50.01 -39.27,59.26 -11.65,-3.11 -24.2,-27.09 -30.96,-36.61 -6.96,-9.81 -18.92,-33.77 -33.79,-33.77 -13.62,0 -22.52,8.9 -22.52,22.52z"/>
   <path class="fil0" d="M582.77 616.56l-28.15 0 0 -61.94c28.06,0 61.94,-6.28 61.94,33.78 0,17.61 -15.61,28.15 -33.78,28.15zm-73.2 -76.01l0 171.73c0,41.57 45.05,38.3 45.05,8.45l0 -59.12 22.52 0c115.21,0 107.32,-152.03 5.63,-152.03 -42.71,0 -73.2,-8.03 -73.2,30.97z"/>
   <path class="fil0" d="M118.24 540.54l0 177.37c0,11.61 9.46,25.34 19.71,25.34 26.84,0 87.63,4.97 97.87,-6.29 12.21,-13.42 7.03,-38.75 -24.68,-38.75l-47.86 0 0 -47.86c24.51,0 73.2,6.12 73.2,-22.52 0,-29.59 -43.33,-22.52 -73.2,-22.52l0 -50.68c32.5,0 78.83,7.48 78.83,-19.71 0,-13.62 -8.91,-22.52 -22.52,-22.52 -71.61,0 -101.35,-10.35 -101.35,28.15z"/>
   <path class="fil0" d="M703.83 529.28l0 191.44c0,32.24 45.61,22.52 98.54,22.52 28.32,0 35.43,-45.05 -5.63,-45.05l-50.68 0 0 -47.86c50.04,0 73.2,7.01 73.2,-28.15 0,-23.14 -50.49,-16.89 -73.2,-16.89l0 -50.68c56.04,0 78.83,7.9 78.83,-22.52 0,-13.14 -6.56,-19.71 -19.71,-19.71l-84.46 0c-6.78,0 -16.89,10.11 -16.89,16.89z"/>
   <path class="fil0" d="M1044.49 529.28c0,30.87 32.13,25.34 53.49,25.34l0 171.74c0,19.18 42.23,26.73 42.23,-5.63l0 -166.11c15.05,0 53.49,4.34 53.49,-22.52 0,-13.2 -11.69,-22.52 -25.34,-22.52l-95.72 0c-14.74,0 -28.15,5.65 -28.15,19.71z"/>
  </g>
 </g>
</svg>
