<?xml version="1.0" encoding="UTF-8"?>
<!DOCTYPE svg PUBLIC "-//W3C//DTD SVG 1.1//EN" "http://www.w3.org/Graphics/SVG/1.1/DTD/svg11.dtd">
<!-- Creator: CorelDRAW -->
<svg xmlns="http://www.w3.org/2000/svg" xml:space="preserve" width="100mm" height="100mm" version="1.1" style="shape-rendering:geometricPrecision; text-rendering:geometricPrecision; image-rendering:optimizeQuality; fill-rule:evenodd; clip-rule:evenodd"
viewBox="0 0 1075.7 1075.7"
 xmlns:xlink="http://www.w3.org/1999/xlink"
 xmlns:xodm="http://www.corel.com/coreldraw/odm/2003">
 <defs>
  <style type="text/css">
   <![CDATA[
    .fil0 {fill:white}
   ]]>
  </style>
 </defs>
 <g id="Слой_x0020_1">
  <metadata id="CorelCorpID_0Corel-Layer"/>
  <g id="_1994757406736">
   <g>
    <path class="fil0" d="M522.63 873.59c0,10.67 3.29,21.58 14.92,20.96 3.95,-0.21 8.09,-1.85 11.21,-4.44 2.08,-1.73 4.32,-4.46 4.32,-7.45 0,-10.67 -3.29,-21.58 -14.92,-20.96 -3.95,0.21 -8.09,1.85 -11.21,4.44 -2.08,1.73 -4.32,4.46 -4.32,7.45z"/>
   </g>
   <g>
    <path class="fil0" d="M603.36 905.32c0,6.69 8.06,13.61 12.67,17.17 8.09,6.26 14.91,11.92 21.42,20.15 6.26,7.92 11.64,16.29 16.18,25.44 3.97,7.99 12.22,19.47 22.09,17.29 7.93,-1.75 11.2,-11.09 11.2,-18.84 0,-5.88 -5.03,-15.31 -7.87,-20.16 -5.7,-9.74 -12.76,-19.08 -20.01,-27.56 -7.04,-8.24 -14.9,-16.44 -23.21,-23.22 -2.95,-2.41 -11.28,-8.77 -15.12,-8.77 -9.53,0 -17.35,8.31 -17.35,18.51z"/>
   </g>
   <g>
    <path class="fil0" d="M775.45 304.63c0,9.26 17,23.8 23.13,29.28 6.07,5.42 12.43,10.88 17.95,16.94 4.62,5.08 9.67,11.75 9.87,19.15 0.23,8.3 -2,18.21 -3.73,26.31 -2.01,9.41 -4.26,18.99 -5.34,28.58 -0.69,6.16 -1.18,15 1.61,20.67 2.8,5.67 8.66,6.79 14.22,6.79 4.94,0 25.31,-12.28 30.22,-15.2 6.35,-3.77 12.68,-7.64 19.11,-11.23 3.73,-2.08 10.19,-5.75 14.37,-6.08 4.15,-0.33 10.82,3.54 14.47,5.57 6.47,3.61 12.83,7.51 19.22,11.28 5.75,3.4 26.19,15.66 32.21,15.66 4.9,0 9.75,-1.06 12.41,-5.83 2.79,-4.99 2.85,-12.82 2.54,-18.43 -1.02,-18.28 -6.6,-36.33 -8.67,-54.5 -0.45,-3.97 -1.27,-8.13 0.67,-11.83 1.46,-2.79 5.14,-5.69 7.37,-7.96 8.39,-8.53 16.94,-16.58 25.02,-25.51 4.2,-4.64 8.48,-9.62 12,-14.87 1.14,-1.7 4.25,-6.63 4.25,-8.79 0,-5.32 -0.39,-11.66 -4.91,-14.93 -5.02,-3.63 -15.89,-4.96 -21.82,-5.8 -8.26,-1.17 -16.49,-2.84 -24.72,-4.23 -7.49,-1.27 -15.67,-2.61 -23.26,-2.61l-4.78 0 -1.09 -4.97c-1.24,-5.69 -4.86,-13.17 -7.35,-18.41 -3.22,-6.77 -6.69,-13.41 -9.88,-20.19 -1.91,-4.04 -3.51,-8.2 -5.19,-12.36 -1.28,-3.16 -2.67,-6.51 -4.47,-9.37 -3.5,-5.55 -7.71,-7.25 -13.97,-7.25 -11,0 -18.85,18.54 -22.54,27.39 -3.26,7.84 -6.08,15.89 -9.35,23.72 -2.51,6.01 -6.07,13.96 -11.07,18.01 -6.92,5.6 -17.4,5.06 -25.67,6.3 -7.01,1.06 -14.06,1.78 -21.08,2.75 -5.81,0.81 -11.96,1.79 -17.55,3.71 -8.92,3.06 -14.2,7.66 -14.2,18.23zm64.09 7.17c9.2,0 20.67,-0.65 29.32,-4.34 4.53,-1.93 8.09,-4.6 10.71,-9.04 2.36,-4.01 3.72,-8.83 5.41,-13.2 2.39,-6.15 5.34,-11.24 10.48,-15.26l7.36 -5.75 2.07 9.48c1.79,8.21 9.69,24.68 15.52,30.32 6.73,6.51 27.12,7.78 35.97,7.78l11.28 0 -6.28 10c-2.01,3.21 -4.91,6.27 -7.5,8.96 -3.05,3.17 -6.17,6.25 -9.19,9.45 -2.27,2.41 -9.91,10.71 -9.91,14.27 0,6.43 0.88,12.2 2.01,18.48 1.23,6.81 2.23,13.07 2.23,20.05l0 12.04 -9.37 -6.7c-6.52,-4.66 -13.78,-9.87 -20.92,-13.34 -3.73,-1.82 -7.69,-3.25 -11.85,-2.89 -4.23,0.36 -8.63,2.53 -12.37,4.54 -7.05,3.77 -13.94,8.09 -20.93,12.03l-11.68 6.6 3 -13.73c2.2,-10.08 4.68,-22.22 4.66,-32.61 -0.01,-4.38 -0.46,-9.06 -2.85,-12.75 -2.09,-3.23 -5.77,-6.07 -8.59,-8.58 -5.36,-4.78 -9.7,-9.6 -13.61,-15.83l-6.28 -10 11.28 0z"/>
   </g>
   <g>
    <path class="fil0" d="M53.11 304.63c0,9.26 17,23.8 23.13,29.28 6.07,5.42 12.43,10.88 17.95,16.94 4.62,5.08 9.67,11.75 9.88,19.15 0.19,6.66 -0.95,13.77 -2.18,20.29 -1.37,7.25 -3.06,14.43 -4.55,21.65 -1.5,7.28 -5.13,24.55 -1.6,31.38 4.51,8.7 10.43,10.56 19.04,7.93 8.86,-2.71 17.08,-8.91 24.98,-13.81 2.03,-1.26 4.22,-2.41 6.3,-3.56 3.49,-1.92 6.99,-3.81 10.5,-5.68 3.44,-1.83 6.9,-3.65 10.38,-5.38 1.97,-0.98 5.45,-2.84 7.59,-3.01 4.15,-0.33 10.82,3.54 14.47,5.57 6.47,3.61 12.83,7.51 19.22,11.28 5.75,3.4 26.19,15.66 32.21,15.66 4.9,0 9.75,-1.06 12.41,-5.83 2.79,-4.99 2.85,-12.82 2.54,-18.43 -1.02,-18.28 -6.6,-36.33 -8.67,-54.5 -0.45,-3.97 -1.27,-8.13 0.67,-11.83 1.46,-2.79 5.14,-5.69 7.37,-7.96 8.39,-8.53 16.94,-16.58 25.02,-25.51 4.2,-4.64 8.48,-9.62 12,-14.87 1.14,-1.7 4.25,-6.63 4.25,-8.79 0,-5.32 -0.39,-11.66 -4.91,-14.93 -5.02,-3.63 -15.89,-4.96 -21.82,-5.8 -8.26,-1.17 -16.49,-2.84 -24.72,-4.23 -7.49,-1.27 -15.67,-2.61 -23.26,-2.61l-4.78 0 -1.08 -4.97c-1.24,-5.69 -4.86,-13.17 -7.35,-18.41 -3.22,-6.77 -6.69,-13.41 -9.88,-20.19 -1.91,-4.04 -3.51,-8.2 -5.19,-12.36 -1.28,-3.16 -2.67,-6.51 -4.47,-9.37 -3.5,-5.55 -7.71,-7.25 -13.97,-7.25 -11,0 -18.85,18.54 -22.54,27.4 -3.26,7.84 -6.08,15.89 -9.35,23.72 -2.51,6.01 -6.07,13.96 -11.07,18.01 -4.68,3.79 -19.55,5.85 -25.52,6.76 -8.75,1.33 -17.5,2.27 -26.25,3.51 -6.24,0.88 -14.56,2.16 -19.98,5.74 -5.22,3.45 -6.75,8.59 -6.75,14.99zm64.09 7.17c9.2,0 20.67,-0.65 29.32,-4.34 4.53,-1.93 8.09,-4.6 10.71,-9.04 2.36,-4.01 3.72,-8.83 5.41,-13.2 2.39,-6.15 5.34,-11.24 10.48,-15.26l7.36 -5.75 2.07 9.48c7.08,32.41 22.34,38.1 51.5,38.1l11.28 0 -6.28 10c-2.01,3.21 -4.91,6.27 -7.5,8.96 -3.05,3.17 -6.17,6.25 -9.19,9.45 -2.27,2.41 -9.91,10.71 -9.91,14.27 0,6.43 0.88,12.2 2.01,18.48 1.23,6.81 2.23,13.07 2.23,20.05l0 12.04 -9.37 -6.7c-6.52,-4.66 -13.78,-9.87 -20.92,-13.34 -3.73,-1.82 -7.69,-3.25 -11.85,-2.89 -4.23,0.36 -8.63,2.53 -12.37,4.54 -7.05,3.77 -13.94,8.09 -20.93,12.03l-11.68 6.6 3 -13.73c1.91,-8.75 7.24,-32.39 3.95,-40.47 -2.2,-5.38 -6.37,-9.73 -10.35,-13.64 -5,-4.92 -10.16,-9.58 -13.99,-15.66l-6.28 -10 11.28 0z"/>
   </g>
   <g>
    <path class="fil0" d="M444.02 218.98l-10.16 71.47 -0.02 0.13c-1.36,7.4 -5.52,25.35 -4.17,32.27 1.19,6.09 8.73,13.89 14.7,13.89 3.75,-0.13 17.4,-7.23 21.11,-9.19 7.53,-3.96 15.25,-8.21 22.51,-12.71 5.87,-3.64 11.71,-7.33 17.57,-10.98 4.24,-2.64 8.51,-5.29 12.88,-7.68 6.16,-3.38 12.73,-6.42 19.8,-6.04 6.74,0.36 13.06,3.81 18.89,7.18 9.64,5.57 19,11.36 28.8,16.67 3.38,1.83 6.72,3.94 10.02,5.95 4.3,2.62 8.59,5.24 12.95,7.74 3.97,2.28 15.97,9.07 20.31,9.07 3.38,0 7.55,-2.79 10.02,-5.11 2.02,-1.91 5.21,-5.78 5.21,-8.86 0,-7.35 -1.21,-15.65 -2.25,-22.91 -1.5,-10.39 -3.28,-20.74 -5.08,-31.08 -1.73,-9.94 -3.53,-19.88 -5.13,-29.85 -0.63,-3.91 -1.23,-7.84 -1.72,-11.78 -0.35,-2.82 -0.69,-5.81 -0.69,-8.66 0,-3.69 2.42,-7.02 4.58,-9.67 2.65,-3.24 5.67,-6.31 8.62,-9.24 8.14,-8.09 16.63,-15.84 24.91,-23.77 8.33,-7.98 16.9,-16.3 24.36,-25.21 2.36,-2.81 9.75,-12.04 9.75,-15.98 0,-9.36 -3.34,-14.32 -11.54,-17.36 -4.43,-1.64 -9.36,-2.45 -14,-3.1 -5.5,-0.78 -11.02,-1.35 -16.49,-2.34 -11.02,-1.99 -22.08,-3.56 -33.15,-5.23 -8.98,-1.35 -28.76,-2.24 -34.94,-9.3l-0.62 -0.7 -37.34 -81.59c-3.17,-6.92 -9.38,-16.45 -17.79,-14.82 -10.16,1.97 -17.87,17.76 -21.35,26.77l-0.07 0.18 -27.77 61.3c-1.89,4.18 -3.69,9.26 -7.48,11.86 -3.48,2.4 -9.41,2.84 -13.49,3.54 -6.9,1.18 -14,1.95 -20.94,2.85 -9.68,1.25 -19.36,2.55 -28.99,4.14 -8.93,1.47 -18.15,3.16 -26.87,5.7 -2.41,0.7 -11.02,3.44 -12.56,5.58 -8.14,11.47 -1.43,22.65 7.83,30.1 1.56,1.26 3.12,2.83 4.57,4.24 2.48,2.42 4.93,4.88 7.37,7.36 6.58,6.67 13.08,13.42 19.54,20.22 6.23,6.56 12.45,13.18 18.49,19.93 2.07,2.31 4.15,4.66 6.12,7.08 1.73,2.13 3.7,4.47 3.7,7.47l0 0.49zm198.69 -67.18c-5.91,9.41 -15.19,18.07 -23.06,25.66 -4.07,3.92 -8.16,7.85 -12.04,11.98 -3.08,3.29 -6.28,6.93 -8.69,10.82 -2.72,4.39 -3.46,8.54 -3.08,13.73 0.46,6.33 2.2,13.01 3.19,19.32 1.07,6.85 2.51,13.69 3.75,20.52 1.22,6.78 2.56,14.3 2.71,21.2l0.17 8.28 -7.56 -1.88c-8.45,-2.1 -16.11,-5.99 -23.56,-10.65 -6.39,-4 -12.51,-8.56 -18.96,-12.42 -12.11,-7.25 -21.65,-9.2 -34.08,-0.88l-0.27 0.18 -55.86 29.26 2.88 -13.2c2.9,-13.28 5.76,-26.48 7.59,-40 0.9,-6.68 3.35,-27.8 -0.66,-33.4 -5.96,-8.31 -14.45,-16.05 -21.74,-23.09 -7.81,-7.55 -16.69,-16.05 -22.57,-25.42l-6.28 -10 11.28 0c4.92,0 10.12,-0.52 15.01,-1.03 7.1,-0.75 14.21,-1.74 21.26,-2.98 6.67,-1.18 13.51,-2.59 20,-4.61 2.35,-0.73 8.45,-2.79 10.16,-4.63 0.63,-0.75 1.39,-2.15 1.9,-3.05 1.26,-2.21 2.46,-4.47 3.63,-6.74 3.2,-6.21 6.25,-12.54 9.21,-18.88 2.97,-6.36 5.89,-12.78 8.63,-19.26 1.01,-2.38 2.01,-4.79 2.93,-7.22 0.41,-1.09 1,-2.55 1.25,-3.7l2.07 -9.48 7.36 5.75c7.41,5.79 13.58,21.71 17.2,30.63 2.45,6.01 4.82,12.07 7.46,17.99 1.9,4.26 4.22,9.26 6.98,12.96 3.9,5.24 23.74,9.31 29.83,10.41 7.07,1.28 14.23,2.23 21.37,2.91 5.12,0.49 10.43,0.93 15.57,0.93l11.28 0 -6.28 10z"/>
   </g>
   <path class="fil0" d="M-0 1005.89l0 58.09c0.19,3.23 7.95,11.52 10.98,11.72l1053.74 0c3.03,-0.2 10.8,-8.48 10.98,-11.72l0 -27.22c0,-27.51 -0.54,-55.59 -8.39,-82.05 -8.91,-30.03 -26.41,-55.09 -46.24,-77.97 -26.71,-30.83 -79.18,-56.74 -118.31,-60.22l-17.86 -1.59 0.23 -0.16 -19.61 1.74c-34.03,3.02 -67.9,18.48 -96.2,38.38 -9.32,6.56 -17.01,15.12 -26.29,21.75l-5 3.58 -3.35 -5.34c-35.59,-56.71 -110.86,-98.11 -173.95,-103.71l-29.42 -2.61 1.52 1.03 -17.84 1.58c-57.76,5.13 -108.01,32.99 -149.9,74.78 -4.28,4.27 -8.71,8.51 -12.68,13.1 -4.25,4.92 -7.89,10.28 -11.37,15.83l-3.35 5.34 -5 -3.58c-4.5,-3.21 -8.8,-6.6 -12.98,-10.26 -3.11,-2.72 -6.13,-5.55 -9.27,-8.22 -9.63,-8.2 -20.65,-14.53 -31.62,-20.43 -10.1,-5.43 -21.54,-9.78 -32.36,-13.23 -11.6,-3.71 -24.2,-6.92 -36.26,-7.99l-18.62 -1.65 -18.62 1.65c-39.19,3.48 -91.55,29.34 -118.31,60.22 -7.06,8.15 -13.96,16.46 -20.08,25.44 -6.19,9.09 -11.36,18.65 -16.08,28.68 -11.8,25.08 -17.28,47.09 -18.47,75.03zm756.46 37.33l-437.89 0 6.79 -57.92 0.07 -0.32c10.04,-46.83 35.15,-89.84 68.42,-121.96 32.53,-31.41 74.08,-53.52 118.22,-56.89 6.76,-0.52 13.52,-1.08 20.27,-1.67 2.18,-0.19 4.64,-0.5 6.83,-0.37 1.74,0.1 3.57,0.46 5.31,0.66 5.62,0.64 11.35,0.97 16.99,1.28 20.32,1.12 47.36,9.81 65.93,18.62 34.3,16.29 68.1,46.67 89.24,79.74 16.82,26.3 26.94,49.42 33.63,80.6 0.82,3.82 1.52,7.7 2.15,11.56 0.68,4.17 1.34,8.52 1.62,12.74 0.61,9.08 2.1,18.3 2.29,27.36l0.14 6.57zm5.36 -138.71c4.14,-2.96 8.25,-7.25 12.06,-10.73 6.88,-6.29 13.96,-11.91 21.65,-17.05 43.5,-29.05 103.23,-35.61 150.5,-13.54 71.92,33.58 99.23,91.77 99.23,173.6l0 6.43 -258.49 0 0 -6.43c0,-44.1 -10.36,-84.37 -27.09,-124.32l-2.07 -4.95 4.22 -3.02zm-472.89 120.94l0 17.76 -258.49 0 0 -6.43c0,-81.83 27.31,-140.02 99.23,-173.6 27.48,-12.83 57.24,-16.38 86.75,-11.25 29.18,5.07 56.8,18.37 80.43,37.2 3.35,2.67 6.35,5.61 9.41,8.64 2.43,2.4 4.86,4.77 7.61,6.74l3.46 2.47 -0.94 4.33c-1.36,6.25 -4.04,12.78 -6.38,18.7 -3.21,8.13 -6.39,16.21 -9.18,24.52 -7.76,23.15 -11.9,46.28 -11.9,70.93z"/>
   <path class="fil0" d="M537.63 410.75c89.61,0 162.25,77.29 162.25,172.64 0,95.34 -72.64,172.64 -162.25,172.64 -89.61,0 -162.25,-77.29 -162.25,-172.64 0,-95.34 72.64,-172.64 162.25,-172.64zm0 38.65c69.55,0 125.93,59.99 125.93,133.99 0,74 -56.38,133.99 -125.93,133.99 -69.55,0 -125.93,-59.99 -125.93,-133.99 0,-74 56.38,-133.99 125.93,-133.99z"/>
   <path class="fil0" d="M883.83 579.96c49,0 88.72,42.16 88.72,94.16 0,52 -39.72,94.16 -88.72,94.16 -49,0 -88.72,-42.16 -88.72,-94.16 0,-52 39.72,-94.16 88.72,-94.16zm0 -34.51c66.96,0 121.24,57.61 121.24,128.67 0,71.06 -54.28,128.67 -121.24,128.67 -66.96,0 -121.24,-57.61 -121.24,-128.67 0,-71.06 54.28,-128.67 121.24,-128.67z"/>
   <path class="fil0" d="M189.22 580.65c48.64,0 88.07,41.85 88.07,93.46 0,51.62 -39.43,93.46 -88.07,93.46 -48.64,0 -88.07,-41.85 -88.07,-93.46 0,-51.62 39.43,-93.46 88.07,-93.46zm0 -35.2c66.96,0 121.24,57.61 121.24,128.67 0,71.06 -54.28,128.67 -121.24,128.67 -66.96,0 -121.24,-57.61 -121.24,-128.67 0,-71.06 54.28,-128.67 121.24,-128.67z"/>
  </g>
 </g>
</svg>
