<?xml version="1.0" encoding="UTF-8"?>
<!DOCTYPE svg PUBLIC "-//W3C//DTD SVG 1.1//EN" "http://www.w3.org/Graphics/SVG/1.1/DTD/svg11.dtd">
<!-- Creator: CorelDRAW -->
<svg xmlns="http://www.w3.org/2000/svg" xml:space="preserve" width="100mm" height="87.0633mm" version="1.1" style="shape-rendering:geometricPrecision; text-rendering:geometricPrecision; image-rendering:optimizeQuality; fill-rule:evenodd; clip-rule:evenodd"
viewBox="0 0 5945.01 5175.92"
 xmlns:xlink="http://www.w3.org/1999/xlink"
 xmlns:xodm="http://www.corel.com/coreldraw/odm/2003">
 <defs>
  <style type="text/css">
   <![CDATA[
    .fil0 {fill:white}
   ]]>
  </style>
 </defs>
 <g id="Слой_x0020_1">
  <metadata id="CorelCorpID_0Corel-Layer"/>
  <g id="_1994708222176">
   <path class="fil0" d="M4220.05 4504.07c0,-320.67 335.48,-581.61 674.68,-435.1 230.62,99.6 347.59,379 239.7,630.75 -158.52,369.9 -708.43,374.73 -870.33,-0.12 -19.24,-44.56 -44.05,-138.23 -44.05,-195.53zm-3066.6 0c0,-511.72 714.28,-658.54 914.26,-195.52 213.22,493.66 -408.79,898.38 -773.37,533.79 -80.2,-80.2 -140.88,-219.85 -140.88,-338.27zm-455.2 -479.16l-311.45 0 0 -191.66 347.39 0c-1.66,74.34 -34.28,117.33 -35.94,191.66zm3342.11 371.35l-11.98 -1137.99 958.31 0 0 634.88c-135.35,-31.54 -72.33,-59.9 -323.43,-59.9 -317.99,0 -622.91,310.19 -622.91,563.01zm1521.32 -754.67l191.66 0 0 215.62c-73.2,-17.05 -118.47,-66.8 -191.66,-83.85l0 -131.77zm-5174.89 -191.66l3066.6 0 0 958.31 -1126.02 0c-53.41,0 -25.67,-68.67 -92.46,-207.01 -94.23,-195.17 -326.6,-367.98 -566.38,-367.98 -303.33,0 -497,118.93 -634.58,359.67 -147.94,258.86 139.35,215.32 -539.36,215.32 -121.66,0 -107.81,-128.23 -107.81,-191.66l467.18 0c2.38,-107.24 129.35,-466.67 131.77,-574.99l-598.95 0 0 -191.66zm-191.66 -383.33l3258.26 0 0 191.67 -3258.26 0 0 -191.67zm4408.24 -191.66l383.32 0 0 191.66c-113.66,0 -235.1,15.01 -311.97,-47.39 -62.96,-51.11 -56.23,-110.4 -71.35,-144.27zm-1916.62 -766.65l191.66 0 0 383.33 574.98 0 0 383.32 -766.65 0 0 -766.65zm-1149.97 0l191.66 0 0 383.33 574.98 0 0 -383.33 191.66 0 0 766.65 -958.31 0 0 -766.65zm-1149.98 0l191.67 0 0 383.33 574.98 0 0 -383.33 191.66 0 0 766.65 -958.31 0 0 -766.65zm4024.91 742.69c0,92.03 1.14,127.21 47.92,215.62l-431.24 0 0 -766.65 862.48 0 71.88 383.32c-187.76,0 -400.09,-33.38 -488.8,50.25 -27.57,25.99 -62.23,67.95 -62.23,117.46zm-1341.63 -742.69l383.32 0 0 191.67 -383.32 0 0 -191.67zm-1149.97 0l191.66 0 0 191.67 -191.66 0 0 -191.67zm-1149.97 0l191.66 0 0 191.67 -191.66 0 0 -191.67zm3066.6 167.71l0 2132.24 -191.66 0 0 -2180.16c0,-185.91 125.53,-311.45 311.45,-311.45l970.3 0c186.32,0 279.62,109.15 308.22,278.74l124.48 749.98c7.34,46.92 3.5,79.19 38.36,105.39 5.87,4.41 39.36,19.09 48.77,23.1 190.38,81.04 306.7,142.59 306.7,376.09l-383.33 0 0 455.2c44.53,3.7 141.92,60.84 190.11,85.41 35.49,18.1 59.87,31.98 94.26,49.47l48.19 23.68c26.29,13.42 19.15,13.74 50.76,21.12 0,361.75 30.4,323.43 -359.37,323.43 -68.71,0 -5.99,-132.42 -178.39,-336.7 -49.37,-58.5 -38.56,-37.95 -37.42,-142.26l0.2 -1042.37c0.16,-130.24 -63.18,-652.04 -146.62,-727.84 -31.38,-28.51 -72.51,-50.79 -128.89,-50.79l-898.42 0c-74.8,0 -167.7,92.9 -167.7,167.71zm-1724.96 -1126.02l191.66 0 0 383.33 574.99 0 0 -383.33 191.66 0 0 766.65 -958.31 0 0 -766.65zm-1149.97 0l191.66 0 0 383.33 574.99 0 0 -383.33 191.66 0 0 766.65 -958.31 0 0 -766.65zm1533.3 0l191.67 0 0 191.67 -191.67 0 0 -191.67zm-1149.97 0l191.67 0 0 191.67 -191.67 0 0 -191.67zm191.67 -958.31l191.66 0 0 383.33 574.98 0 0 -383.33 191.66 0 0 766.65 -958.31 0 0 -766.65zm383.32 0l191.66 0 0 191.67 -191.66 0 0 -191.67zm-574.99 766.65l-574.98 0 0 958.31 -574.99 0 0 958.31c-237.03,0 -191.66,267.81 -191.66,407.29 0,69.88 77.09,167.7 191.66,167.7l0 886.44c0,69.65 48.85,154.03 86.98,188.54 127.56,115.46 397.36,71.48 621.15,73.63 76.93,0.74 61.98,2.02 76.58,67.15 62.83,280.08 338.71,509.2 616.83,509.2 292.32,0 511.67,-123.61 634.24,-360.01 14.32,-27.62 33.38,-76.79 44.42,-111.31 15.86,-49.55 5.97,-103.68 52.05,-103.68l1677.05 0c58.3,0 25.45,84.95 91.78,207.69 36.46,67.46 79.68,128.48 132.53,178.93 258.28,246.5 676.46,254.39 928.92,11.94 190.03,-182.49 176.6,-324 212.37,-398.56 124.9,0 302.97,22.71 399.45,-19.81 85.92,-37.87 175.54,-127.64 175.54,-243.72l0 -970.29c0,-92.21 -42.49,-184.6 -81.87,-241.57 -83.08,-120.2 -165.28,-144.78 -274.63,-204.53 -51.64,-28.22 -40.25,-48.43 -50.91,-116.78 -28.58,-183.06 -105.08,-706.03 -155.41,-814.88 -55.56,-120.14 -219.98,-263.35 -395.49,-263.35l-1090.08 0c-223.4,0 -320.08,191.66 -371.35,191.66l-263.54 0 0 -958.31 -574.98 0 0 -958.31 -1341.64 0 0 958.31z"/>
   <path class="fil0" d="M1536.78 4504.07c0,-121.02 191.66,-121.02 191.66,0 0,121.02 -191.66,121.02 -191.66,0zm-191.67 -23.95c0,417.57 574.99,417.57 574.99,0 0,-146.63 -125.91,-263.54 -311.45,-263.54 -131.78,0 -263.54,131.75 -263.54,263.54z"/>
   <path class="fil0" d="M4603.38 4504.07c0,-121.02 191.66,-121.02 191.66,0 0,121.02 -191.66,121.02 -191.66,0zm-191.67 -23.95c0,417.57 574.99,417.57 574.99,0 0,-146.63 -125.91,-263.54 -311.45,-263.54 -131.78,0 -263.54,131.75 -263.54,263.54z"/>
  </g>
 </g>
</svg>
