<?xml version="1.0" encoding="UTF-8"?>
<!DOCTYPE svg PUBLIC "-//W3C//DTD SVG 1.1//EN" "http://www.w3.org/Graphics/SVG/1.1/DTD/svg11.dtd">
<!-- Creator: CorelDRAW -->
<svg xmlns="http://www.w3.org/2000/svg" xml:space="preserve" width="100mm" height="87.0633mm" version="1.1" style="shape-rendering:geometricPrecision; text-rendering:geometricPrecision; image-rendering:optimizeQuality; fill-rule:evenodd; clip-rule:evenodd"
viewBox="0 0 4406.89 3836.78"
 xmlns:xlink="http://www.w3.org/1999/xlink"
 xmlns:xodm="http://www.corel.com/coreldraw/odm/2003">
 <defs>
  <style type="text/css">
   <![CDATA[
    .fil0 {fill:limegreen}
   ]]>
  </style>
 </defs>
 <g id="Слой_x0020_1">
  <metadata id="CorelCorpID_0Corel-Layer"/>
  <g id="_1996019118848">
   <path class="fil0" d="M3128.21 3338.75c0,-237.71 248.68,-431.13 500.12,-322.53 170.96,73.83 257.66,280.94 177.69,467.56 -117.51,274.2 -525.14,277.77 -645.15,-0.09 -14.27,-33.03 -32.66,-102.46 -32.66,-144.94zm-2273.19 0c0,-379.32 529.48,-488.16 677.72,-144.93 158.05,365.93 -303.02,665.95 -573.28,395.69 -59.45,-59.45 -104.43,-162.97 -104.43,-250.75zm-337.43 -355.19l-230.87 0 0 -142.07 257.51 0c-1.23,55.1 -25.41,86.97 -26.64,142.07zm2477.42 275.27l-8.88 -843.57 710.37 0 0 470.62c-100.33,-23.38 -53.62,-44.4 -239.75,-44.4 -235.72,0 -461.74,229.93 -461.74,417.35zm1127.72 -559.42l142.07 0 0 159.83c-54.26,-12.64 -87.82,-49.52 -142.07,-62.15l0 -97.68zm-3836.01 -142.07l2273.19 0 0 710.37 -834.69 0c-39.59,0 -19.03,-50.9 -68.54,-153.45 -69.85,-144.67 -242.1,-272.77 -419.84,-272.77 -224.85,0 -368.41,88.16 -470.4,266.62 -109.66,191.88 103.29,159.61 -399.81,159.61 -90.18,0 -79.92,-95.06 -79.92,-142.07l346.31 0c1.77,-79.5 95.89,-345.93 97.67,-426.23l-443.98 0 0 -142.07zm-142.07 -284.15l2415.26 0 0 142.08 -2415.26 0 0 -142.08zm3267.71 -142.07l284.15 0 0 142.07c-84.25,0 -174.27,11.13 -231.26,-35.13 -46.67,-37.89 -41.68,-81.84 -52.89,-106.94zm-1420.74 -568.3l142.07 0 0 284.15 426.22 0 0 284.15 -568.29 0 0 -568.3zm-852.45 0l142.07 0 0 284.15 426.22 0 0 -284.15 142.07 0 0 568.3 -710.37 0 0 -568.3zm-852.45 0l142.08 0 0 284.15 426.22 0 0 -284.15 142.07 0 0 568.3 -710.37 0 0 -568.3zm2983.56 550.54c0,68.22 0.84,94.29 35.52,159.83l-319.67 0 0 -568.29 639.33 0 53.28 284.15c-139.18,0 -296.57,-24.74 -362.33,37.25 -20.44,19.27 -46.13,50.37 -46.13,87.07zm-994.52 -550.54l284.15 0 0 142.08 -284.15 0 0 -142.08zm-852.45 0l142.07 0 0 142.08 -142.07 0 0 -142.08zm-852.45 0l142.07 0 0 142.08 -142.07 0 0 -142.08zm2273.19 124.32l0 1580.58 -142.07 0 0 -1616.1c0,-137.81 93.06,-230.87 230.87,-230.87l719.26 0c138.12,0 207.28,80.91 228.48,206.63l92.28 555.94c5.44,34.78 2.6,58.7 28.44,78.13 4.35,3.27 29.18,14.15 36.15,17.12 141.13,60.07 227.35,105.7 227.35,278.79l-284.15 0 0 337.43c33.01,2.75 105.2,45.1 140.92,63.31 26.3,13.41 44.38,23.71 69.88,36.67l35.72 17.56c19.49,9.95 14.2,10.19 37.63,15.65 0,268.15 22.53,239.75 -266.39,239.75 -50.93,0 -4.44,-98.16 -132.24,-249.58 -36.6,-43.36 -28.58,-28.13 -27.74,-105.46l0.15 -772.68c0.12,-96.55 -46.83,-483.34 -108.69,-539.53 -23.26,-21.13 -53.75,-37.65 -95.55,-37.65l-665.98 0c-55.45,0 -124.31,68.87 -124.31,124.32zm-1278.67 -834.69l142.07 0 0 284.15 426.23 0 0 -284.15 142.07 0 0 568.3 -710.37 0 0 -568.3zm-852.45 0l142.07 0 0 284.15 426.23 0 0 -284.15 142.07 0 0 568.3 -710.37 0 0 -568.3zm1136.59 0l142.08 0 0 142.08 -142.08 0 0 -142.08zm-852.45 0l142.08 0 0 142.08 -142.08 0 0 -142.08zm142.08 -710.37l142.07 0 0 284.15 426.22 0 0 -284.15 142.07 0 0 568.3 -710.37 0 0 -568.3zm284.15 0l142.07 0 0 142.08 -142.07 0 0 -142.08zm-426.23 568.3l-426.22 0 0 710.37 -426.23 0 0 710.37c-175.7,0 -142.07,198.52 -142.07,301.91 0,51.8 57.15,124.31 142.07,124.31l0 657.09c0,51.63 36.21,114.18 64.47,139.76 94.55,85.59 294.56,52.98 460.44,54.58 57.03,0.55 45.94,1.49 56.77,49.78 46.58,207.62 251.07,377.45 457.24,377.45 216.69,0 379.29,-91.63 470.14,-266.86 10.62,-20.47 24.74,-56.92 32.93,-82.51 11.75,-36.73 4.43,-76.85 38.58,-76.85l1243.15 0c43.21,0 18.87,62.97 68.03,153.96 27.03,50.01 59.06,95.24 98.24,132.63 191.46,182.73 501.44,188.57 688.58,8.85 140.86,-135.27 130.91,-240.18 157.42,-295.44 92.59,0 224.58,16.83 296.1,-14.69 63.69,-28.07 130.12,-94.62 130.12,-180.66l0 -719.25c0,-68.36 -31.5,-136.84 -60.69,-179.07 -61.59,-89.1 -122.52,-107.33 -203.58,-151.61 -38.28,-20.92 -29.83,-35.9 -37.74,-86.57 -21.18,-135.7 -77.89,-523.36 -115.2,-604.05 -41.18,-89.05 -163.06,-195.22 -293.16,-195.22l-808.05 0c-165.6,0 -237.27,142.07 -275.27,142.07l-195.35 0 0 -710.37 -426.22 0 0 -710.37 -994.52 0 0 710.37z"/>
   <path class="fil0" d="M1139.18 3338.75c0,-89.71 142.07,-89.71 142.07,0 0,89.71 -142.07,89.71 -142.07,0zm-142.08 -17.76c0,309.53 426.23,309.53 426.23,0 0,-108.7 -93.33,-195.35 -230.87,-195.35 -97.68,0 -195.35,97.67 -195.35,195.35z"/>
   <path class="fil0" d="M3412.37 3338.75c0,-89.71 142.07,-89.71 142.07,0 0,89.71 -142.07,89.71 -142.07,0zm-142.08 -17.76c0,309.53 426.23,309.53 426.23,0 0,-108.7 -93.33,-195.35 -230.87,-195.35 -97.68,0 -195.35,97.67 -195.35,195.35z"/>
  </g>
 </g>
</svg>
