<?xml version="1.0" encoding="UTF-8"?>
<!DOCTYPE svg PUBLIC "-//W3C//DTD SVG 1.1//EN" "http://www.w3.org/Graphics/SVG/1.1/DTD/svg11.dtd">
<!-- Creator: CorelDRAW -->
<svg xmlns="http://www.w3.org/2000/svg" xml:space="preserve" width="29.65mm" height="34.9301mm" version="1.1" style="shape-rendering:geometricPrecision; text-rendering:geometricPrecision; image-rendering:optimizeQuality; fill-rule:evenodd; clip-rule:evenodd"
viewBox="0 0 36.75 43.29"
 xmlns:xlink="http://www.w3.org/1999/xlink"
 xmlns:xodm="http://www.corel.com/coreldraw/odm/2003">
 <defs>
  <style type="text/css">
   <![CDATA[
    .fil1 {fill:#00E800}
    .fil2 {fill:#00E800}
    .fil5 {fill:#1FAD15}
    .fil4 {fill:#1FAD15}
    .fil0 {fill:limegreen}
    .fil3 {fill:lightgreen}
   ]]>
  </style>
 </defs>
 <g id="Слой_x0020_1">
  <metadata id="CorelCorpID_0Corel-Layer"/>
  <path class="fil0" d="M36.75 1.66l0 29.19 0 1.66 0 4.18 0 1.04c0,0.34 -0.28,0.62 -0.62,0.62l-0.42 0c-0.34,0 -0.62,0.28 -0.62,0.62l0 1.86c0,1.36 -1.11,2.47 -2.47,2.47l-0.07 0c-1.36,0 -2.47,-1.11 -2.47,-2.47 0,1.36 -1.11,2.47 -2.47,2.47l-0.07 0c-1.36,0 -2.47,-1.11 -2.47,-2.47l0 -0.01 0 -1.85c0,-0.34 -0.28,-0.62 -0.62,-0.62l-1.66 0 0.18 4.31c0.01,0.17 -0.05,0.33 -0.17,0.45 -0.12,0.13 -0.27,0.19 -0.45,0.19l-1.05 0 -5.85 0 -1.05 0c-0.17,0 -0.32,-0.06 -0.45,-0.19 -0.12,-0.13 -0.18,-0.28 -0.17,-0.45l0.15 -3.66c0.01,-0.17 -0.05,-0.33 -0.17,-0.45 -0.12,-0.13 -0.27,-0.19 -0.45,-0.19l-1.01 0c-0.34,0 -0.62,0.28 -0.62,0.62l0 1.86c0,1.36 -1.11,2.47 -2.47,2.47 -1.36,0 -2.54,-1.1 -2.54,-2.48 0,1.36 -1.1,2.48 -2.47,2.48 -1.4,0 -2.56,-1.05 -2.54,-2.47l0 -1.86c0,-0.34 -0.28,-0.62 -0.62,-0.62l-0.42 0c-0.34,0 -0.62,-0.28 -0.62,-0.62l0 -1.04 0 -4.18 0 -1.66 0 -29.19 0 -1.04c0,-0.34 0.28,-0.62 0.62,-0.62l1.04 0 33.43 0 1.04 0c0.34,0 0.62,0.28 0.62,0.62l0 1.04zm-12.22 23.55c-0.34,0 -0.62,0.28 -0.62,0.62l0 4.4c0,0.34 0.28,0.62 0.62,0.62l1.68 0c0.34,0 0.62,-0.28 0.62,-0.62l0 -4.4c0,-0.34 -0.28,-0.62 -0.62,-0.62l-1.68 0zm-14.05 -1.75l4.46 0c0.34,0 0.62,-0.28 0.62,-0.62l0 -4.41c0,-0.34 -0.28,-0.62 -0.62,-0.62l-4.46 0c-0.34,0 -0.62,0.28 -0.62,0.62l0 4.41c0,0.34 0.28,0.62 0.62,0.62zm4.46 1.66l-4.46 0c-0.34,0 -0.62,0.28 -0.62,0.62l0 4.49c0,0.34 0.28,0.62 0.62,0.62l3.73 0 0.73 0c0.34,0 0.62,-0.28 0.62,-0.62l0 -4.49c0,-0.34 -0.28,-0.62 -0.62,-0.62zm8.96 -11.06l-6.07 0c-0.34,0 -0.62,0.28 -0.62,0.62l0 15.55c0,0.34 0.28,0.62 0.62,0.62l3.04 0 0.77 0c0.34,0 0.62,-0.28 0.62,-0.62l0 -5.02 0 -1.07c0,-0.34 0.28,-0.62 0.62,-0.62l1.04 0 0 0.03 0.61 0 0 -8.87c0,-0.34 -0.28,-0.62 -0.62,-0.62zm-2.86 21.98l-0.17 -3.54 -4.98 0 -0.31 6.43 -0.1 2.06c-0.01,0.18 0.05,0.33 0.17,0.46 0.12,0.13 0.27,0.19 0.45,0.19l4.55 0c0.18,0 0.33,-0.06 0.45,-0.19 0.12,-0.13 0.18,-0.28 0.17,-0.46l-0.24 -4.95zm-17.47 2.3l1.21 0 0.62 0 0 0.62 0 1.03 0 1.03c0,0.34 -0.28,0.62 -0.62,0.62l-1.21 0c-0.34,0 -0.62,-0.28 -0.62,-0.62l0 -1.03 0 -1.03 0 -0.62 0.62 0zm5.01 0l1.21 0 0.62 0 0 0.62 0 1.03 0 1.03c0,0.34 -0.28,0.62 -0.62,0.62l-1.21 0c-0.34,0 -0.62,-0.28 -0.62,-0.62l0 -1.03 0 -1.03 0 -0.62 0.62 0zm18.39 0l1.21 0 0.62 0 0 0.62 0 1.03 0 1.03c0,0.34 -0.28,0.62 -0.62,0.62l-1.21 0c-0.34,0 -0.62,-0.28 -0.62,-0.62l0 -1.03 0 -1.03 0 -0.62 0.62 0zm5.01 0l1.21 0 0.62 0 0 0.62 0 1.03 0 1.03c0,0.34 -0.28,0.62 -0.62,0.62l-1.21 0c-0.34,0 -0.62,-0.28 -0.62,-0.62l0 -1.03 0 -1.03 0 -0.62 0.62 0zm0.42 -8.12c0,0.34 0.28,0.62 0.62,0.62l1.46 0c0.34,0 0.62,-0.28 0.62,-0.62l0 -27.95c0,-0.34 -0.28,-0.62 -0.62,-0.62l-32.2 0c-0.34,0 -0.62,0.28 -0.62,0.62l0 27.95c0,0.34 0.28,0.62 0.62,0.62l1.44 0c0.34,0 0.62,-0.28 0.62,-0.62l0 -19.71 0 -1.66 0 -2.68 0 -1.04c0,-0.34 0.28,-0.62 0.62,-0.62l1.04 0 24.75 0 1.07 0c0.34,0 0.62,0.28 0.62,0.62l0 1.04 -0.03 24.05zm-1.66 -21.99l0 -1.44c0,-0.34 -0.28,-0.62 -0.62,-0.62l-23.51 0c-0.34,0 -0.62,0.28 -0.62,0.62l0 1.44c0,0.34 0.28,0.62 0.62,0.62l23.51 0c0.34,0 0.62,-0.28 0.62,-0.62zm-22.54 15.22l0 -5.64 0 -1.04c0,-0.34 0.28,-0.62 0.62,-0.62l1.04 0 5.07 0c0.34,0 0.62,-0.28 0.62,-0.62l0 -1.48 0 -1.04c0,-0.34 0.28,-0.62 0.62,-0.62l1.04 0 7.31 0 1.04 0c0.34,0 0.62,0.28 0.62,0.62l0 1.04 0 8.87c0,0.34 0.28,0.62 0.62,0.62l0.03 0 1.04 0c0.34,0 0.62,0.28 0.62,0.62l0 1.04 0 5.02c0,0.34 0.28,0.62 0.62,0.62l1.03 0c0.34,0 0.62,-0.28 0.62,-0.62l0 -19.1c0,-0.34 -0.28,-0.62 -0.62,-0.62l-23.51 0c-0.34,0 -0.62,0.28 -0.62,0.62l0 19.1c0,0.34 0.28,0.62 0.62,0.62l0.97 0c0.34,0 0.62,-0.28 0.62,-0.62l0 -6.76zm14.35 9.04l0.17 4.18 11.75 0c0.34,0 0.62,-0.28 0.62,-0.62l0 -2.95c0,-0.34 -0.28,-0.62 -0.62,-0.62l-11.93 0zm-8.35 0l-0.17 4.18 -11.75 0c-0.34,0 -0.62,-0.28 -0.62,-0.62l0 -2.95c0,-0.34 0.28,-0.62 0.62,-0.62l11.93 0z"/>
  <path class="fil1" d="M24.52 25.21c-0.34,0 -0.62,0.28 -0.62,0.62l0 4.4c0,0.34 0.28,0.62 0.62,0.62l1.68 0c0.34,0 0.62,-0.28 0.62,-0.62l0 -4.4c0,-0.34 -0.28,-0.62 -0.62,-0.62l-1.68 0z"/>
  <path class="fil2" d="M10.47 23.46l4.46 0c0.34,0 0.62,-0.28 0.62,-0.62l0 -4.41c0,-0.34 -0.28,-0.62 -0.62,-0.62l-4.46 0c-0.34,0 -0.62,0.28 -0.62,0.62l0 4.41c0,0.34 0.28,0.62 0.62,0.62z"/>
  <path class="fil2" d="M14.93 25.12l-4.46 0c-0.34,0 -0.62,0.28 -0.62,0.62l0 4.49c0,0.34 0.28,0.62 0.62,0.62l3.73 0 0.73 0c0.34,0 0.62,-0.28 0.62,-0.62l0 -4.49c0,-0.34 -0.28,-0.62 -0.62,-0.62z"/>
  <path class="fil3" d="M23.89 14.06l-6.07 0c-0.34,0 -0.62,0.28 -0.62,0.62l0 15.55c0,0.34 0.28,0.62 0.62,0.62l3.04 0 0.77 0c0.34,0 0.62,-0.28 0.62,-0.62l0 -5.02 0 -1.07c0,-0.34 0.28,-0.62 0.62,-0.62l1.04 0 0 0.03 0.61 0 0 -8.87c0,-0.34 -0.28,-0.62 -0.62,-0.62z"/>
  <path class="fil4" d="M21.03 36.04l-0.17 -3.54 -4.98 0 -0.31 6.43 -0.1 2.06c-0.01,0.18 0.05,0.33 0.17,0.46 0.12,0.13 0.27,0.19 0.45,0.19l4.55 0c0.18,0 0.33,-0.06 0.45,-0.19 0.12,-0.13 0.18,-0.28 0.17,-0.46l-0.24 -4.95z"/>
  <path class="fil4" d="M3.56 38.34l1.21 0 0.62 0 0 0.62 0 1.03 0 1.03c0,0.34 -0.28,0.62 -0.62,0.62l-1.21 0c-0.34,0 -0.62,-0.28 -0.62,-0.62l0 -1.03 0 -1.03 0 -0.62 0.62 0z"/>
  <path class="fil4" d="M8.58 38.34l1.21 0 0.62 0 0 0.62 0 1.03 0 1.03c0,0.34 -0.28,0.62 -0.62,0.62l-1.21 0c-0.34,0 -0.62,-0.28 -0.62,-0.62l0 -1.03 0 -1.03 0 -0.62 0.62 0z"/>
  <path class="fil4" d="M26.97 38.34l1.21 0 0.62 0 0 0.62 0 1.03 0 1.03c0,0.34 -0.28,0.62 -0.62,0.62l-1.21 0c-0.34,0 -0.62,-0.28 -0.62,-0.62l0 -1.03 0 -1.03 0 -0.62 0.62 0z"/>
  <path class="fil5" d="M31.98 38.34l1.21 0 0.62 0 0 0.62 0 1.03 0 1.03c0,0.34 -0.28,0.62 -0.62,0.62l-1.21 0c-0.34,0 -0.62,-0.28 -0.62,-0.62l0 -1.03 0 -1.03 0 -0.62 0.62 0z"/>
 </g>
</svg>
