<?xml version="1.0" encoding="UTF-8"?>
<!DOCTYPE svg PUBLIC "-//W3C//DTD SVG 1.1//EN" "http://www.w3.org/Graphics/SVG/1.1/DTD/svg11.dtd">
<!-- Creator: CorelDRAW -->
<svg xmlns="http://www.w3.org/2000/svg" xml:space="preserve" width="118.973mm" height="140.159mm" version="1.1" style="shape-rendering:geometricPrecision; text-rendering:geometricPrecision; image-rendering:optimizeQuality; fill-rule:evenodd; clip-rule:evenodd"
viewBox="0 0 466.04 549.03"
 xmlns:xlink="http://www.w3.org/1999/xlink"
 xmlns:xodm="http://www.corel.com/coreldraw/odm/2003">
 <defs>
  <style type="text/css">
   <![CDATA[
    .fil1 {fill:#00E800}
    .fil2 {fill:#00E800}
    .fil5 {fill:#1FAD15}
    .fil4 {fill:#1FAD15}
    .fil0 {fill:limegreen}
    .fil3 {fill:lightgreen}
    .fil7 {fill:white}
    .fil6 {fill:white}
   ]]>
  </style>
 </defs>
 <g id="Слой_x0020_1">
  <metadata id="CorelCorpID_0Corel-Layer"/>
  <path class="fil0" d="M466.04 21.02l0 370.17 0 21.02 0 53.05 0 13.18c0,4.32 -3.52,7.83 -7.83,7.83l-5.35 0c-4.31,0 -7.83,3.52 -7.83,7.83l0 23.58c0,17.26 -14.08,31.34 -31.34,31.34l-0.91 0c-17.26,0 -31.34,-14.08 -31.34,-31.34 0,17.26 -14.08,31.34 -31.34,31.34l-0.91 0c-17.26,0 -31.34,-14.08 -31.34,-31.34l0 -0.08 0 -23.5c0,-4.32 -3.52,-7.83 -7.83,-7.83l-21.02 0 2.24 54.6c0.09,2.21 -0.64,4.15 -2.18,5.75 -1.53,1.6 -3.44,2.41 -5.65,2.41l-13.29 0 -74.17 0 -13.29 0c-2.21,0 -4.12,-0.81 -5.65,-2.41 -1.53,-1.6 -2.27,-3.53 -2.18,-5.75l1.91 -46.44c0.09,-2.21 -0.64,-4.15 -2.18,-5.75 -1.53,-1.6 -3.44,-2.41 -5.65,-2.41l-12.86 0c-4.31,0 -7.83,3.52 -7.83,7.83l0 23.58c0,17.26 -14.08,31.34 -31.34,31.34 -17.19,0 -32.25,-13.98 -32.25,-31.42 0,17.31 -14.01,31.42 -31.34,31.42 -17.72,0 -32.43,-13.26 -32.25,-31.34l0 -23.58c0,-4.32 -3.52,-7.83 -7.83,-7.83l-5.35 0c-4.32,0 -7.83,-3.52 -7.83,-7.83l0 -13.18 0 -53.05 0 -21.02 0 -370.17 0 -13.18c0,-4.32 3.52,-7.83 7.83,-7.83l13.18 0 424 0 13.18 0c4.32,0 7.83,3.52 7.83,7.83l0 13.18z"/>
  <path class="fil1" d="M311 319.72c-4.31,0 -7.83,3.52 -7.83,7.83l0 55.8c0,4.31 3.52,7.83 7.83,7.83l21.28 0c4.32,0 7.83,-3.52 7.83,-7.83l0 -55.8c0,-4.32 -3.52,-7.83 -7.83,-7.83l-21.28 0z"/>
  <path class="fil2" d="M132.81 297.56l56.51 0c4.32,0 7.83,-3.52 7.83,-7.83l0 -55.91c0,-4.32 -3.52,-7.83 -7.83,-7.83l-56.51 0c-4.32,0 -7.83,3.52 -7.83,7.83l0 55.91c0,4.32 3.52,7.83 7.83,7.83z"/>
  <path class="fil2" d="M189.32 318.58l-56.51 0c-4.32,0 -7.83,3.52 -7.83,7.83l0 56.94c0,4.32 3.52,7.83 7.83,7.83l47.28 0 9.22 0c4.32,0 7.83,-3.52 7.83,-7.83l0 -56.94c0,-4.32 -3.52,-7.83 -7.83,-7.83z"/>
  <path class="fil3" d="M303 178.34l-76.99 0c-4.32,0 -7.83,3.52 -7.83,7.83l0 197.18c0,4.32 3.52,7.83 7.83,7.83l38.57 0 9.74 0c4.32,0 7.83,-3.52 7.83,-7.83l0 -63.63 0 -13.51c0,-4.32 3.52,-7.83 7.83,-7.83l13.18 0 0 0.33 7.67 0 0 -112.52c0,-4.32 -3.52,-7.83 -7.83,-7.83z"/>
  <path class="fil4" d="M266.72 457.05l-2.14 -44.85 -63.1 0 -3.9 81.53 -1.25 26.07c-0.11,2.22 0.62,4.17 2.16,5.78 1.53,1.61 3.45,2.43 5.67,2.43l57.73 0c2.22,0 4.14,-0.82 5.67,-2.43 1.53,-1.61 2.26,-3.56 2.16,-5.78l-3 -62.76z"/>
  <path class="fil4" d="M45.17 486.28l15.29 0 7.83 0 0 7.83 0 13.03 0 13.03c0,4.32 -3.52,7.83 -7.83,7.83l-15.29 0c-4.32,0 -7.83,-3.52 -7.83,-7.83l0 -13.03 0 -13.03 0 -7.83 7.83 0z"/>
  <path class="fil4" d="M108.76 486.28l15.29 0 7.83 0 0 7.83 0 13.03 0 13.03c0,4.32 -3.52,7.83 -7.83,7.83l-15.29 0c-4.32,0 -7.83,-3.52 -7.83,-7.83l0 -13.03 0 -13.03 0 -7.83 7.83 0z"/>
  <path class="fil4" d="M341.99 486.28l15.29 0 7.83 0 0 7.83 0 13.03 0 13.03c0,4.32 -3.52,7.83 -7.83,7.83l-15.29 0c-4.32,0 -7.83,-3.52 -7.83,-7.83l0 -13.03 0 -13.03 0 -7.83 7.83 0z"/>
  <path class="fil5" d="M405.58 486.28l15.29 0 7.83 0 0 7.83 0 13.03 0 13.03c0,4.32 -3.52,7.83 -7.83,7.83l-15.29 0c-4.32,0 -7.83,-3.52 -7.83,-7.83l0 -13.03 0 -13.03 0 -7.83 7.83 0z"/>
  <path class="fil6" d="M410.88 383.35c0,4.32 3.52,7.83 7.83,7.83l18.48 0c4.32,0 7.83,-3.52 7.83,-7.83l0 -354.5c0,-4.32 -3.52,-7.83 -7.83,-7.83l-408.33 0c-4.32,0 -7.83,3.52 -7.83,7.83l0 354.5c0,4.32 3.52,7.83 7.83,7.83l18.29 0c4.32,0 7.83,-3.52 7.83,-7.83l0 -250.03 0 -21.02 0 -33.97 0 -13.18c0,-4.32 3.52,-7.83 7.83,-7.83l13.18 0 313.86 0 13.6 0c4.32,0 7.83,3.52 7.83,7.83l0 13.18 -0.41 305.02z"/>
  <path class="fil6" d="M389.86 104.47l0 -18.3c0,-4.32 -3.52,-7.83 -7.83,-7.83l-298.19 0c-4.32,0 -7.83,3.52 -7.83,7.83l0 18.3c0,4.32 3.52,7.83 7.83,7.83l298.19 0c4.32,0 7.83,-3.52 7.83,-7.83z"/>
  <path class="fil6" d="M103.96 297.56l0 -71.58 0 -13.18c0,-4.32 3.52,-7.83 7.83,-7.83l13.18 0 64.34 0c4.32,0 7.83,-3.52 7.83,-7.83l0 -18.78 0 -13.18c0,-4.32 3.52,-7.83 7.83,-7.83l13.18 0 92.66 0 13.18 0c4.32,0 7.83,3.52 7.83,7.83l0 13.18 0 112.52c0,4.32 3.52,7.83 7.83,7.83l0.42 0 13.18 0c4.32,0 7.83,3.52 7.83,7.83l0 13.18 0 63.63c0,4.32 3.52,7.83 7.83,7.83l13.07 0c4.32,0 7.83,-3.52 7.83,-7.83l0 -242.19c0,-4.32 -3.52,-7.83 -7.83,-7.83l-298.19 0c-4.32,0 -7.83,3.52 -7.83,7.83l0 242.19c0,4.32 3.52,7.83 7.83,7.83l12.29 0c4.32,0 7.83,-3.52 7.83,-7.83l0 -85.79z"/>
  <path class="fil7" d="M285.95 412.2l2.18 53.05 149.06 0c4.32,0 7.83,-3.52 7.83,-7.83l0 -37.39c0,-4.32 -3.52,-7.83 -7.83,-7.83l-151.24 0z"/>
  <path class="fil7" d="M180.1 412.2l-2.18 53.05 -149.06 0c-4.32,0 -7.83,-3.52 -7.83,-7.83l0 -37.39c0,-4.32 3.52,-7.83 7.83,-7.83l151.24 0z"/>
 </g>
</svg>
