<?xml version="1.0" encoding="UTF-8"?>
<!DOCTYPE svg PUBLIC "-//W3C//DTD SVG 1.1//EN" "http://www.w3.org/Graphics/SVG/1.1/DTD/svg11.dtd">
<!-- Creator: CorelDRAW -->
<svg xmlns="http://www.w3.org/2000/svg" xml:space="preserve" width="36.23mm" height="36.2244mm" version="1.1" style="shape-rendering:geometricPrecision; text-rendering:geometricPrecision; image-rendering:optimizeQuality; fill-rule:evenodd; clip-rule:evenodd"
viewBox="0 0 1422.09 1421.87"
 xmlns:xlink="http://www.w3.org/1999/xlink"
 xmlns:xodm="http://www.corel.com/coreldraw/odm/2003">
 <defs>
  <style type="text/css">
   <![CDATA[
    .fil0 {fill:white}
   ]]>
  </style>
 </defs>
 <g id="Слой_x0020_1">
  <metadata id="CorelCorpID_0Corel-Layer"/>
  <g id="_1687159706368">
   <path class="fil0" d="M513.72 641.45c0,27.66 3.03,32.85 19.88,55.11 25.93,34.36 76.51,94.01 108.28,119.3 6.7,5.4 10.81,10.37 16.86,16.43l36.31 30.26c62.02,50.14 100.06,78.45 167.28,-8.64 63.97,-82.99 74.78,-46.03 153.23,32.42 10.81,10.81 67.43,62.46 67.43,74.35 0,28.74 -5.62,26.37 -28.53,49.28 -12.1,12.1 -21.61,23.99 -35.88,33.5 -65.92,44.09 -118.65,45.82 -193,21.61l-63.97 -24.85c-41.93,-19.45 -75.85,-41.93 -111.95,-65.7 -9.08,-6.05 -16.86,-11.67 -25.72,-18.8 -62.03,-51.22 -69.81,-54.25 -126.43,-118 -49.28,-55.55 -61.81,-75.43 -101.14,-140.48 -11.89,-19.67 -18.8,-38.47 -29.18,-59.87 -48.41,-100.28 -40.2,-180.68 35.88,-256.75 64.4,-64.4 46.9,-59.87 181.98,74.99 52.73,52.73 42.79,50.14 -20.75,113.9 -16.64,16.64 -50.79,42.14 -50.79,71.54l0.21 0.42zm908.15 43.44l0 54.46c-1.95,48.63 -8.64,97.25 -20.75,145.24 -18.8,75.21 -41.28,120.6 -74.56,183.71 -26.58,50.36 -62.25,86.45 -91.85,124.7 -20.75,27.02 -87.75,81.69 -115.41,101.14 -8.64,6.05 -17.07,11.67 -26.8,17.51 -135.08,79.75 -228.23,110.22 -406.31,110.22 -192.78,0 -408.91,-111.52 -520.64,-254.38 -25.72,-32.85 -51.22,-64.19 -71.1,-101.14 -9.94,-18.59 -20.1,-35.88 -29.61,-56.41 -49.06,-105.9 -64.84,-193.21 -64.84,-323.97 0,-97.47 34.36,-212.23 66.57,-277.72 43.66,-88.4 110.44,-182.41 187.81,-242.71 9.29,-7.35 14.7,-12.54 24.64,-19.88 8.86,-6.48 15.56,-12.1 23.77,-17.94 8.64,-6.05 17.07,-11.67 26.8,-17.51 29.18,-17.29 49.06,-30.04 82.34,-45.39 105.9,-49.06 193.21,-64.84 323.97,-64.84 192.78,0 408.91,111.52 520.64,254.38 7.35,9.29 12.54,14.7 19.88,24.64l35.44 50.79c24.64,41.71 39.77,66.35 58.57,113.47 30.91,77.59 48.41,159.28 51.66,241.84l-0.22 -0.22z"/>
  </g>
 </g>
</svg>
